<?xml version="1.0" encoding="UTF-8"?>
<svg id="Layer_2" data-name="Layer 2" xmlns="http://www.w3.org/2000/svg" viewBox="0 0 1873.85 630.91">
  <g id="Layer_1-2" data-name="Layer 1">
    <g>
      <path d="M139.99,230.55l-8.52-40.17h-1.7c-2.27,11.6-5.11,27.44-7.1,39.6l-88.6.57-17.32-80.9c-2.27-11.03-3.98-16.12-8.24-16.12v-57.14h92.29v57.14c-7.38,1.41-10.51,5.09-10.51,9.62,0,5.09,1.99,9.05,9.09,15.84l29.25,26.31,1.42-.85-7.38-34.79c-2.56-11.32-7.38-16.12-15.62-16.12v-57.14h99.68v57.14c-7.38,1.41-10.51,5.09-10.51,9.62,0,4.81,1.99,8.77,8.8,15.84l28.4,27.44c.85-3.39,1.14-5.94,1.14-8.77,0-19.52-8.24-35.36-20.45-44.13v-57.14h42.6v57.71c-6.53,10.75-13.35,28.29-17.89,51.2l-9.37,45.26h-89.45Z" fill="#000" stroke-width="0"/>
      <path d="M345.3,233.38c-60.77,0-83.21-22.06-83.21-81.19s22.43-78.64,83.21-78.64,82.92,22.63,82.92,78.64c0,58.84-22.43,81.19-82.92,81.19ZM345.3,123.62c-10.51,0-13.35,5.38-13.35,28.29,0,24.05,2.84,31.12,13.35,31.12s13.06-7.07,13.06-31.12-2.84-28.29-13.06-28.29Z" fill="#000" stroke-width="0"/>
      <path d="M602.87,155.59c0,13.3,1.42,17.54,9.94,17.54v57.43h-74.12v-61.39h-3.12c-.28,57.71-14.2,66.48-47.14,66.48s-45.15-16.69-44.87-55.44v-29.14c0-11.88-1.42-16.97-7.38-16.97v-57.71h76.96v84.02c0,11.6,2.56,14.43,9.94,14.43,5.96,0,10.22-3.11,10.22-12.45v-11.32c0-11.88-2.27-16.97-13.06-16.97v-57.71h82.64v79.21Z" fill="#000" stroke-width="0"/>
      <path d="M702.26,155.87c0,11.88,1.42,16.97,9.09,16.97v57.71h-89.17v-57.71c8.8,0,10.22-5.09,10.22-16.97v-40.45c0-13.01-1.42-16.97-9.94-16.97v-57.42h79.8v114.85Z" fill="#000" stroke-width="0"/>
      <path d="M876.34,156.43c0,12.45,1.42,16.41,10.22,16.41v57.71h-74.12v-60.25h-3.41c-2.56,44.98-13.35,63.08-44.87,63.08s-47.71-22.35-47.71-74.12c0-58.56,13.92-85.71,45.15-85.71,23,0,38.34,8.49,42.31,45.54h2.84v-22.35c0-11.88-2.56-16.97-15.62-16.97v-38.75h85.19v115.42ZM806.77,158.13v-32.25c-2.56-1.13-5.4-1.7-8.52-1.7-9.37,0-11.93,1.7-11.93,30.55,0,16.97,3.69,20.08,10.22,20.08s10.22-5.09,10.22-16.69Z" fill="#000" stroke-width="0"/>
      <path d="M953.01,266.76v-61.95h107.34c3.69,0,5.68-1.41,5.68-3.68,0-3.68-1.99-4.81-19.88-4.81h-69.01l-16.19-52.62c-1.99-6.51-3.98-9.9-8.52-10.18v-57.14h107.06v57.14c-11.93.28-16.47,3.96-16.47,10.47,0,2.83.57,5.66,2.27,9.33l17.32,38.75h4.26v-115.7h37.2v57.42c-12.21,13.3-26.13,33.66-31.52,60.25-13.06,62.8-24.14,72.7-61.34,72.7h-58.22Z" fill="#000" stroke-width="0"/>
      <path d="M1193.25,233.38c-60.77,0-83.21-22.06-83.21-81.19s22.43-78.64,83.21-78.64,82.92,22.63,82.92,78.64c0,58.84-22.43,81.19-82.92,81.19ZM1193.25,123.62c-10.51,0-13.35,5.38-13.35,28.29,0,24.05,2.84,31.12,13.35,31.12s13.06-7.07,13.06-31.12-2.84-28.29-13.06-28.29Z" fill="#000" stroke-width="0"/>
      <path d="M1450.82,155.59c0,13.3,1.42,17.54,9.94,17.54v57.43h-74.12v-61.39h-3.12c-.28,57.71-14.2,66.48-47.14,66.48s-45.15-16.69-44.87-55.44v-29.14c0-11.88-1.42-16.97-7.38-16.97v-57.71h76.96v84.02c0,11.6,2.56,14.43,9.94,14.43,5.96,0,10.22-3.11,10.22-12.45v-11.32c0-11.88-2.27-16.97-13.06-16.97v-57.71h82.64v79.21Z" fill="#000" stroke-width="0"/>
    </g>
    <g>
      <path d="M224.47,413.59c-68.53,0-78.96,4.97-78.96,22.59v3.61c0,12.65,7.95,18.07,52.14,18.07v92.17H5.96v-92.17c14.9,0,17.88-8.13,17.88-27.11v-8.13c0-20.78-2.98-27.11-17.88-27.11v-91.71h129.62v122.44h5.46c5.46-108.88,22.84-126.5,83.43-126.5v113.85Z" fill="#000" stroke-width="0"/>
      <path d="M363.52,411.33h-124.65v-107.53h114.22v101.65h5.46c.99-87.65,27.81-106.17,81.44-106.17s75.49,25.3,75.49,90.36v56.02c0,12.2,1.49,14.01,5.96,14.01,5.96,0,8.94-1.81,7.95-37.05h6.95c.99,16.72,1.49,31.63,1.49,44.28,0,62.35-9.93,87.65-67.54,87.65-60.59,0-72.01-33.88-72.01-103.91h-5.96c-.99,75.9-23.34,103.91-84.92,103.91s-78.46-23.04-78.46-63.25c0-46.08,29.3-66.87,92.87-66.87s66.55-2.26,66.55-15.81v-5.87c0-8.13-2.48-12.65-9.93-12.65-9.44,0-13.91,8.13-14.9,21.23ZM388.35,438.89v-16.26c-12.42,9.04-33.77,11.29-33.77,26.2,0,6.33,4.47,10.39,13.41,10.39,11.42,0,20.36-2.26,20.36-20.33Z" fill="#000" stroke-width="0"/>
      <path d="M680.86,303.8h34.76v91.71h-34.76v37.05c0,11.29,3.48,15.81,12.42,15.81,9.93,0,14.9-7.23,13.91-38.85h6.95c.5,9.94.5,19.43.5,35.24,0,83.58-23.34,109.79-75.49,109.79-46.68,0-79.95-13.1-79.95-79.97v-79.06h-15.4v-81.32c49.66,0,119.19-26.2,132.1-64.16h4.97v53.76Z" fill="#000" stroke-width="0"/>
      <path d="M885.46,550.03h-152.96v-92.17c14.9,0,17.88-8.13,17.88-27.11v-63.7c0-21.23-2.98-28.01-17.88-28.01v-91.71h131.6l-1.99,154.51h5.46c.99-88.1,24.83-102.56,82.93-102.56s78.46,25.3,78.46,84.94v46.54c0,18.98,1.99,27.11,12.91,27.11v92.17h-147.99v-92.17c10.93,0,12.91-8.13,12.91-27.11v-14.91c0-18.52-4.47-23.04-17.38-23.04-10.43,0-17.38,4.97-17.38,19.88v18.07c0,18.98,2.48,27.11,13.41,27.11v92.17Z" fill="#000" stroke-width="0"/>
      <path d="M1206.76,554.55c-87.9,0-153.45-24.85-153.45-129.67,0-89.91,40.72-125.6,145.51-125.6s132.6,42.92,132.6,98.94c0,9.04,0,18.07-.5,28.01-38.74.9-96.34,0-150.47,0,4.97,24.85,25.82,31.63,71.02,31.63,53.63,0,68.04-7.23,67.04-22.59h12.42c0,81.77-28.8,119.27-124.15,119.27ZM1179.45,419.92h39.23c-.5-34.79-7.45-41.57-19.37-41.57-12.91,0-20.36,9.04-20.36,33.88,0,2.71,0,5.42.5,7.68Z" fill="#000" stroke-width="0"/>
      <path d="M1564.32,413.59c-68.53,0-78.96,4.97-78.96,22.59v3.61c0,12.65,7.95,18.07,52.14,18.07v92.17h-191.69v-92.17c14.9,0,17.88-8.13,17.88-27.11v-8.13c0-20.78-2.98-27.11-17.88-27.11v-91.71h129.62v122.44h5.46c5.46-108.88,22.84-126.5,83.43-126.5v113.85Z" fill="#000" stroke-width="0"/>
    </g>
    <path d="M1651.5,346.3c0-32.39,24.26-64.44,36.28-83.02,4.9-7.58,0-30.34-12.32-34.23-13.29-4.2-32.09,1.08-37.73,28.95h-127.74V74.73h112.67l.54,177.25h7.53c3.13-141.69,68.63-178.33,118.41-178.33,74.26,0,124.7,61.48,124.7,126.37,0,49.43-14.75,147.39-82.93,155.74-67.11,8.22-77.68-24.56-95.17-26.96-19.93-2.73-32.08,6.83-32.08,18.88,0,3.01-.08,3.38-.08,6.1l-11.92.11c-.13-3.71-.15-3.82-.15-7.58ZM1755.18,461.19c0,65.54-37.22,92.66-91.32,92.66s-90.7-26.37-90.7-92.66,36.61-92.66,90.7-92.66,91.32,26.37,91.32,92.66Z" fill="#000" stroke-width="0"/>
  </g>
</svg>