<svg width="46" height="305" viewBox="0 0 46 305" fill="none" xmlns="http://www.w3.org/2000/svg">
<g clip-path="url(#clip0_54_40)">
<path d="M44.46 80.72C44.71 55.21 44.98 29.09 45.27 2.36998C38.1 0.829981 30.66 0.0399809 22.96 -1.90604e-05C14.91 -0.0400191 7.80999 0.749981 1.64999 2.36998C1.11999 20.63 0.969995 46.74 1.18999 80.7C1.27999 98.21 1.42999 117.24 1.64999 137.78C1.64999 144.73 1.53999 157.67 1.32999 176.59C1.05999 201.44 0.749995 219.33 0.399995 230.24C0.179995 236.97 0.179995 249.97 0.399995 269.24C0.579995 285.87 0.449995 296.08 0.00999451 299.86C12.15 300.34 27.2 301.86 45.15 304.41C43.7 294.77 42.98 273.09 42.98 239.35C43.03 213.43 43.36 190.51 43.97 170.59C43.81 161.3 43.98 131.34 44.48 80.72H44.46Z" fill="#FFA500"/>
</g>
<defs>
<clipPath id="clip0_54_40">
<rect width="45.27" height="304.42" fill="white"/>
</clipPath>
</defs>
</svg>
