<svg width="1319" height="610" viewBox="0 0 1319 610" fill="none" xmlns="http://www.w3.org/2000/svg">
<g clip-path="url(#clip0_54_7)">
<path d="M1031.18 429.23C1027.75 427.16 1023.88 425.47 1019.57 424.15C1015.35 422.83 1011.76 422.17 1008.82 422.17C1002.53 422.17 994.65 423.49 985.19 426.13C977.01 428.38 969.84 430.93 963.68 433.79C963.34 433.24 963.08 434.94 962.89 438.89C962.73 442.23 962.66 446.64 962.66 452.11C962.66 457.17 962.72 461.46 962.84 464.98C962.97 468.71 963.11 470.05 963.29 469.03C972 463.75 980.56 461.11 988.96 461.11C992.57 461.11 995.39 461.99 997.41 463.75C999.3 465.38 1000.36 467.68 1000.57 470.67C1001.1 475.6 1001.54 484.46 1001.89 497.27C1002.11 506.42 1002.22 513.31 1002.22 517.92C1002.17 518.85 1001.89 531.19 1001.36 554.95C1000.88 575.5 1000.46 588.14 1000.11 592.9C1010.36 594.3 1017.36 595.29 1021.1 595.87C1030.16 597.28 1038.37 598.77 1045.72 600.36C1045.37 591.61 1045.15 582.67 1045.06 573.57C1045.02 565.34 1045.11 559.1 1045.32 554.83C1045.5 548.85 1045.7 532.31 1045.92 505.21C1046.1 481.8 1046.18 467.94 1046.18 463.63C1046.18 454.83 1044.46 447.13 1041.03 440.53C1038.31 435.25 1035.03 431.49 1031.2 429.25L1031.18 429.23Z" fill="#FFA500"/>
<path d="M623.5 382.15C623.5 361.74 615.65 345.39 599.94 333.12C582.78 319.66 560.554 314.135 526.09 312.93L488.786 312.491C488.786 312.491 490.728 338.434 490.65 353.975C490.572 369.516 490.45 393.77 490.45 393.77C490.45 418.1 490.16 457.47 489.59 511.9C489.59 520.57 489.41 533.33 489.06 550.18C488.75 567.07 488.38 581.94 487.94 594.79C492.08 594.79 499.71 594.11 510.84 592.74C524.87 591.02 533.54 590.03 536.84 589.77C535.92 580.88 535.15 569.14 534.53 554.53C534.13 544.98 533.67 531.04 533.14 512.69C533.14 497.51 532.85 488.12 532.28 484.51L546.4 482.07C553.31 495.62 561.82 513.55 571.94 535.85C583.2 560.66 592.22 581.67 599 598.87C603.22 597.46 610.35 594.65 620.38 590.42C629.8 586.46 636.9 583.75 641.7 582.3C634.48 567.3 622.91 544.11 606.99 512.74C596.26 491.53 589.04 476.31 585.34 467.07C596.78 459.94 606.04 448.33 613.12 432.23C620.03 416.57 623.48 399.87 623.48 382.14M563.78 357.07C571.26 362.61 575 372.78 575 387.56C575 404.1 573.11 417.08 569.32 426.5C564.96 437.32 557.88 444.1 548.07 446.83C546.18 447.36 543.43 447.95 539.82 448.61C536.21 449.23 533.99 449.6 533.15 449.73C532.97 446.3 532.82 431.05 532.69 404C532.56 374.26 532.43 356.35 532.29 350.28C547.07 350.28 557.57 352.55 563.77 357.08L563.78 357.07Z" fill="#FFA500"/>
<path d="M711.27 443.59C718.44 444.51 724.27 446.01 728.76 448.08C731.36 449.49 733.12 452.02 734.04 455.67C734.92 459.01 735.36 464.36 735.36 471.71C718.82 476.99 710.52 479.65 710.48 479.7C697.85 484.01 686.55 488.52 676.56 493.23C667.15 497.59 660.26 504.67 655.9 514.48C652.51 522.18 650.82 531.13 650.82 541.34C650.82 557.44 655.86 571.52 665.93 583.58C670.11 588.64 674.69 592.62 679.66 595.52C684.5 598.34 688.99 599.74 693.12 599.74C700.51 599.74 708.72 597.36 717.74 592.61C725.26 588.61 731.69 583.94 737.01 578.62C737.32 580.82 737.96 585.81 738.92 593.6C740.02 600.86 741.19 606.07 742.42 609.24C748.27 606.34 754.72 604 761.76 602.24C765.9 601.18 772.43 599.67 781.36 597.69C780.35 593.25 779.53 587 778.92 578.95C778.35 571.21 778.06 563.49 778.06 555.79C777.8 493.36 777.66 461.31 777.66 459.64C777.66 451.85 776.01 444.4 772.71 437.27C769.1 429.39 764.26 423.87 758.19 420.71C750.4 416.71 740 413.41 726.98 410.81C717.26 408.87 703.75 406.94 686.46 405C686.77 414.37 686.09 426.8 684.41 442.29C695.32 442.29 704.27 442.73 711.27 443.61M697.28 523.11C700.49 518.93 704.34 515.87 708.83 513.94C710.68 513.02 715.39 511.23 722.95 508.59C730.08 506.13 734.37 504.45 735.82 503.57C736 506.39 735.89 513.62 735.49 525.28C735.14 536.19 734.83 542.9 734.57 545.41C731.8 548.58 728.08 551.75 723.42 554.91C716.91 559.35 711.23 561.58 706.39 561.58C701.55 561.58 698.14 559.34 695.77 554.85C693.44 550.54 692.27 544.36 692.27 536.31C692.27 531.91 693.94 527.51 697.29 523.11H697.28Z" fill="#FFA500"/>
<path d="M864.57 386.17C865.19 373.94 865.49 365.56 865.49 361.03C858.05 363.85 848.77 366.93 837.64 370.27C829.5 372.65 823.74 374.25 820.35 375.09C820.04 379.97 819.82 385.89 819.69 392.84C819.56 399.44 819.36 404.72 819.1 408.68C819.1 410.53 818.55 412.6 817.45 414.88C814.11 415.5 806.91 416.33 795.87 417.39C795.87 429.84 796.42 440.62 797.52 449.73C800.56 449.16 804.03 448.81 807.95 448.67C811.25 448.58 814 448.65 816.2 448.87C816.07 452.52 816.22 458.53 816.66 466.89C817.19 476.35 817.45 483.19 817.45 487.41V546.67C817.45 560.35 819.94 571.4 824.91 579.8C831.42 590.8 843.43 600.48 860.94 608.84C863.89 604.48 869.26 598.22 877.04 590.03C881.09 585.81 885.53 581.3 890.37 576.5C882.98 573.64 875.98 569.13 869.38 562.97C862.87 556.9 859.5 551.88 859.28 547.92C858.71 536.09 858.51 521.26 858.69 503.44C858.87 487.95 859.2 476.95 859.68 470.44C859.86 469.03 860.08 465.51 860.34 459.88C860.65 453.63 860.85 449.83 860.93 448.46C863.92 448.11 868.23 447.84 873.86 447.67C881.74 447.41 888.62 447.54 894.52 448.07C893.82 441.6 893.55 434.15 893.73 425.7C893.86 419.32 894.13 414.75 894.52 411.97C891.26 412.81 886.27 413.47 879.54 413.95C869.69 414.7 864.16 415.14 862.98 415.27C863.68 402.64 864.21 392.94 864.56 386.17H864.57Z" fill="#FFA500"/>
<path d="M1108.35 514.79C1124.85 514.04 1136.22 513.51 1142.47 513.21C1162.75 512.15 1180.26 511.01 1195 509.78C1193.46 479.03 1188.11 454.94 1178.96 437.52C1168.93 418.56 1155.07 409.08 1137.38 409.08C1115.12 409.08 1098.22 415.17 1086.7 427.36C1072.4 442.49 1065.25 467.77 1065.25 503.19C1065.25 519.2 1067.01 533.22 1070.53 545.23C1074.49 558.74 1080.6 569.32 1088.88 576.97C1095 582.87 1102.96 587.75 1112.77 591.62C1122.36 595.36 1131.38 597.23 1139.83 597.23C1147.13 597.23 1157.52 594.83 1170.98 590.04C1186.16 584.67 1195.82 579.06 1199.95 573.21C1193.83 563.88 1189.55 555.19 1187.08 547.14C1179.16 551.1 1170.63 554.18 1161.47 556.38C1153.86 558.23 1147.48 559.15 1142.33 559.15C1137.93 559.15 1133.14 557.76 1127.94 554.99C1123.32 552.53 1119.98 549.91 1117.91 547.14C1111.93 539.4 1108.74 528.62 1108.34 514.8M1131.18 443.06C1137.56 443.06 1142.53 446.69 1146.09 453.95C1149.04 459.98 1151.11 468.78 1152.29 480.35C1141.38 481.45 1133.09 482.15 1127.41 482.46C1125.52 482.81 1122.24 482.97 1117.58 482.92C1113.44 482.88 1110.36 482.72 1108.34 482.46C1107.55 470.85 1109.64 461.21 1114.61 453.56C1119.14 446.56 1124.66 443.07 1131.17 443.07L1131.18 443.06Z" fill="#FFA500"/>
<path d="M1318.47 442.27C1315.21 433.91 1312.86 427.44 1311.41 422.87C1309.56 416.89 1308.04 410.64 1306.86 404.13C1297.36 405.67 1288.6 408.44 1280.59 412.45C1273.64 415.88 1267.9 419.89 1263.37 424.46V401.23C1258.53 401.01 1253.1 400.64 1247.07 400.11C1235.06 398.97 1226.13 397.54 1220.28 395.82C1220.81 406.33 1221.07 428.02 1221.07 460.89V513.55C1221.07 519.8 1220.7 531.48 1219.95 548.59C1219.03 569.36 1218.01 584.34 1216.91 593.53C1225.88 593.75 1233.76 594.21 1240.54 594.92C1247.45 595.67 1254.9 596.86 1262.91 598.48C1261.81 583.7 1261.26 561.9 1261.26 533.08C1261.26 510.82 1261.55 489.52 1262.12 469.2C1266.74 461.37 1273.14 455.28 1281.32 450.92C1291 445.73 1303.38 442.85 1318.47 442.27Z" fill="#FFA500"/>
<path d="M275.357 75.6048C266.997 74.8148 259.607 73.6948 253.187 72.2348C247.067 70.8248 239.677 68.6448 231.017 65.7048C228.197 87.3948 208.41 214.49 202.73 253.38C196.83 293.72 191.97 325.44 188.15 348.54C185.82 336.09 179.31 304.15 168.62 252.72C159.12 206.83 153.46 178.28 151.66 167.06C145.02 167.85 138.62 168.23 132.46 168.18C127.22 168.14 121.33 167.76 114.77 167.06C113.54 175.46 107.66 204.26 97.15 253.44C85.14 309.53 78.03 343.32 75.83 354.8C72.62 336.45 67.43 301.41 60.26 249.67C52.56 193.97 48.21 162.98 47.19 156.69C38.48 160.87 30.05 164.3 21.91 166.98C15.75 168.96 8.45 170.92 0 172.85C7.57 212.27 23.58 301.1 48.04 439.33C60.58 439.33 75.36 441.11 92.39 444.68C94.5 433.73 100.82 405.44 111.33 359.81C121.62 315.24 128.58 283.3 132.18 263.99C135.96 284.62 142.58 318.41 152.04 365.35C160.8 408.64 168.278 470.914 170.308 482.754C192.252 472.778 198.113 467.754 212.905 456.312C213.215 454.732 217.79 398.94 233.14 314.61C244.97 249.89 269.407 105.685 275.347 75.5948L275.357 75.6048Z" fill="#FF6347"/>
<path d="M387.64 158.084C374.97 146.554 358.19 140.794 337.29 140.794C316.39 140.794 299.17 148.294 286.54 163.294C272.33 180.104 265.22 204.784 265.22 237.334C265.22 248.334 266.63 259.134 269.44 269.734C271.99 279.234 275.27 287.224 279.27 293.694C294.05 316.924 313.26 328.534 336.88 328.534C346.34 328.534 355.49 326.094 364.33 321.204C373.22 316.274 381.07 309.264 387.89 300.154C403.07 279.874 410.66 253.824 410.66 222.014C410.66 193.334 402.98 172.014 387.63 158.064M307.46 229.884C307.46 211.494 309.77 198.124 314.39 189.764C318.48 182.284 324.6 178.544 332.74 178.544C342.07 178.544 349.81 182.594 355.97 190.684C363.41 200.454 367.12 214.774 367.12 233.644C367.12 252.514 364.48 265.874 359.2 275.944C354.27 285.314 347.81 290.004 339.8 290.004C331.22 290.004 323.76 284.434 317.43 273.304C310.79 261.644 307.47 247.174 307.47 229.884H307.46Z" fill="#FF6347"/>
<path d="M428.89 106.36C429.2 109.66 429.59 116.57 430.08 127.08C430.61 137.99 430.92 144.08 431 145.36C431.35 149.23 431.66 160.85 431.92 180.2C432.1 196.08 432.18 210.29 432.18 222.83C432.18 230.62 432.4 238.95 432.84 247.84C433.41 258.53 434.16 266.23 435.08 270.94C440.32 282.51 449.16 288.3 461.61 288.3C465.53 288.3 473.82 286.54 486.49 283.02C497.75 279.85 505.63 277.34 510.12 275.5L511.37 294.97C519.77 294.66 526.5 294.66 531.56 294.97C538.82 295.41 546.74 296.58 555.32 298.47V91.05C548.46 93.56 540.56 95.82 531.63 97.85C524.28 99.52 517.24 100.84 510.51 101.81C510.99 105.64 511.3 111.95 511.43 120.75L511.76 141.21C512.29 152.38 512.6 169.63 512.68 192.95C512.72 205.49 512.7 220.97 512.61 239.41C509.53 241.87 505.44 243.96 500.34 245.68C495.41 247.31 490.93 248.12 486.88 248.12C482.44 248.12 479.42 246.98 477.84 244.69C476.17 242.31 475.33 237.65 475.33 230.7C474.76 158.33 474.47 116.75 474.47 105.97C467.91 106.63 460.74 107 452.96 107.09C444.47 107.22 436.44 106.98 428.87 106.36H428.89Z" fill="#FF6347"/>
<path d="M781.96 96.7174C777.12 97.5974 768.43 98.6274 755.89 99.8174L738.47 101.267C739.26 119.527 739.81 135.977 740.12 150.627C740.65 172.717 740.91 186.527 740.91 192.067C730.92 188.367 725.6 186.417 724.94 186.197C718.08 183.997 712.36 182.897 707.78 182.897C698.81 182.897 689.13 187.317 678.74 196.157C670.6 203.157 664.66 210.057 660.92 216.877C657.75 222.727 654.91 231.177 652.41 242.217C649.24 256.247 647.66 270.877 647.66 286.107C647.66 311.797 652.76 332.877 662.97 349.327C672.65 364.947 684.4 372.757 698.21 372.757C704.72 372.757 712.11 371.527 720.38 369.057C729.13 366.457 736.13 363.267 741.37 359.487L747.529 400.113C756.091 402.356 755.48 401.744 764.653 405.617C775.661 410.306 778.515 417.849 780.757 421.722C780.887 414.502 781.64 331.517 782.34 327.947L781.94 96.7074M739.26 229.757C740.27 236.487 740.65 251.187 740.38 273.837C740.25 286.247 740.01 303.727 739.65 326.297C736.57 329.597 732.94 332.237 728.76 334.217C724.62 336.157 720.66 337.117 716.88 337.117C708.52 337.117 702.14 330.697 697.74 317.847C693.65 306.017 691.6 290.047 691.6 269.937C691.6 251.107 693.38 238.107 696.95 230.937C700.07 224.597 705.46 221.437 713.12 221.437C716.99 221.437 721.61 222.297 726.98 224.007C732.22 225.727 736.31 227.637 739.25 229.747L739.26 229.757Z" fill="#FF6347"/>
<path d="M1106.88 191.322C1094.21 179.792 1077.43 174.032 1056.53 174.032C1035.63 174.032 1018.39 181.532 1005.72 196.532C991.511 213.382 984.401 238.062 984.401 270.572C984.401 281.572 985.831 292.372 988.691 302.972C991.241 312.472 994.521 320.462 998.521 326.932C1013.3 350.162 1032.51 361.772 1056.13 361.772C1065.59 361.772 1074.74 359.332 1083.58 354.442C1092.47 349.512 1100.32 342.502 1107.14 333.392C1122.32 313.112 1129.91 287.062 1129.91 255.252C1129.91 226.572 1122.23 205.252 1106.88 191.302M1051.97 211.782C1061.3 211.782 1069.04 215.832 1075.2 223.922C1082.64 233.692 1086.35 248.012 1086.35 266.882C1086.35 285.012 1083.71 299.112 1078.43 309.182C1073.5 318.552 1067.04 323.242 1059.03 323.242C1050.45 323.242 1042.99 317.672 1036.66 306.542C1030.02 294.882 1026.7 280.412 1026.7 263.122C1026.7 244.732 1029.01 231.362 1033.63 223.002C1037.72 215.522 1043.84 211.782 1051.98 211.782H1051.97Z" fill="#FF6347"/>
<path d="M1265.2 385.064V181.144C1258.34 183.654 1250.46 185.914 1241.57 187.944C1234.22 189.614 1227.18 190.934 1220.45 191.904C1220.93 195.734 1221.24 202.044 1221.37 210.844L1221.7 231.304C1222.23 242.474 1222.54 259.724 1222.62 283.044C1222.66 295.584 1222.64 311.064 1222.55 329.504C1219.47 331.964 1215.38 334.054 1210.28 335.774C1205.35 337.404 1200.86 338.214 1196.82 338.214C1192.38 338.214 1189.36 337.074 1187.78 334.784C1186.06 332.364 1185.21 327.704 1185.21 320.794C1184.68 248.424 1184.42 206.844 1184.42 196.064C1177.86 196.724 1170.67 197.094 1162.84 197.184C1154.39 197.314 1146.39 197.074 1138.82 196.454C1139.17 199.844 1139.57 206.744 1140.01 217.174C1140.54 228.484 1140.82 234.574 1140.87 235.454C1141.27 239.324 1141.57 250.944 1141.79 270.294C1142.01 286.004 1142.12 300.214 1142.12 312.924C1142.12 320.714 1142.34 329.044 1142.78 337.934C1143.35 348.624 1144.1 356.324 1145.02 361.034C1150.26 372.604 1159.1 378.394 1171.55 378.394C1175.47 378.394 1183.76 376.634 1196.43 373.114C1207.69 369.944 1215.57 367.434 1220.06 365.594L1220.73 380.014C1232.59 382.789 1234.62 382.878 1243.69 383.798C1251.35 384.588 1257.82 384.807 1265.2 385.064Z" fill="#FF6347"/>
<path d="M1002.96 41.0973C996.15 38.7073 987.73 35.3973 977.67 31.1573C972.8 58.2873 962.89 94.2373 947.92 138.987C942.2 126.367 934.98 107.777 926.29 83.2073C918.36 60.8473 912.84 44.0673 909.73 32.8373C894.05 39.8673 877.08 45.2273 858.82 48.9273C868.47 68.5373 879.98 92.6673 893.37 121.337C909.19 155.317 920.17 179.887 926.29 195.027C925.66 222.657 925.07 243.257 924.53 256.817C923.58 280.797 921.94 284.928 921.94 284.928C930.68 283.978 938.68 283.667 945.94 283.977C951.35 284.207 958.18 284.927 966.43 286.137C966.7 280.097 966.81 284.007 969.02 246.327C970.82 215.137 971.72 196.047 971.72 189.067C976.77 175.457 985.04 154.067 996.53 124.907C1008.38 94.7573 1018.66 69.1573 1027.36 48.1073C1018.8 46.0773 1010.66 43.7373 1002.95 41.0773L1002.96 41.0973Z" fill="#FF6347"/>
<path d="M46.9628 509.061L44.8432 552.512C314.725 579.353 272.957 348.958 490.65 353.975C490.728 338.434 488.786 312.491 488.786 312.491C262.546 311.346 282.389 537.585 46.9628 509.061Z" fill="#FFA500"/>
<path d="M964.46 380.72C964.71 355.21 964.98 329.09 965.27 302.37C958.1 300.83 950.66 300.04 942.96 300C934.91 299.96 927.81 300.75 921.65 302.37C921.12 320.63 920.97 346.74 921.19 380.7C921.28 398.21 921.43 417.24 921.65 437.78C921.65 444.73 921.54 457.67 921.33 476.59C921.06 501.44 920.75 519.33 920.4 530.24C920.18 536.97 920.18 549.97 920.4 569.24C920.58 585.87 920.45 596.08 920.01 599.86C932.15 600.34 947.2 601.86 965.15 604.41C963.7 594.77 962.98 573.09 962.98 539.35C963.03 513.43 963.36 490.51 963.97 470.59C963.81 461.3 963.98 431.34 964.48 380.72H964.46Z" fill="#FFA500"/>
<path d="M606.41 10.74C602.15 9.37 595.66 7.46 586.95 5L582 303.09C587.58 304.67 593.65 307.27 600.21 310.88C608.7 315.5 615.81 320.8 621.53 326.78C621.66 318.95 621.77 297.53 621.86 262.5C621.95 231.09 622.06 214.46 622.19 212.61L624.3 17.4C620.12 15.42 614.16 13.2 606.42 10.73L606.41 10.74Z" fill="#FF6347"/>
</g>
<defs>
<clipPath id="clip0_54_7">
<rect width="1318.47" height="609.23" fill="white"/>
</clipPath>
</defs>
</svg>
