<svg width="46" height="305" viewBox="0 0 46 305" fill="none" xmlns="http://www.w3.org/2000/svg">
<path d="M44.46 80.72C44.71 55.21 44.98 29.09 45.27 2.36998C38.1 0.829981 30.66 0.0399809 22.96 -1.90604e-05C14.91 -0.0400191 7.81001 0.749981 1.65001 2.36998C1.12001 20.63 0.97001 46.74 1.19001 80.7C1.28001 98.21 1.43001 117.24 1.65001 137.78C1.65001 144.73 1.54001 157.67 1.33001 176.59C1.06001 201.44 0.75001 219.33 0.40001 230.24C0.18001 236.97 0.18001 249.97 0.40001 269.24C0.58001 285.87 0.45001 296.08 0.0100098 299.86C12.15 300.34 27.2 301.86 45.15 304.41C43.7 294.77 42.98 273.09 42.98 239.35C43.03 213.43 43.36 190.51 43.97 170.59C43.81 161.3 43.98 131.34 44.48 80.72H44.46Z" fill="#FFA500"/>
</svg>
