<?xml version="1.0" encoding="UTF-8"?>
<svg id="Layer_2" data-name="Layer 2" xmlns="http://www.w3.org/2000/svg" viewBox="0 0 2374.26 228.24">
  <g id="Layer_1-2" data-name="Layer 1">
    <g>
      <path d="M108.8,187.14l-6.92-32.6h-1.38c-1.84,9.41-4.15,22.27-5.76,32.15l-71.92.46-14.06-65.67c-1.84-8.96-3.23-13.09-6.68-13.09v-46.38h74.91v46.38c-5.99,1.15-8.53,4.13-8.53,7.81,0,4.13,1.61,7.35,7.38,12.86l23.74,21.35,1.15-.69-5.99-28.24c-2.07-9.18-5.99-13.09-12.68-13.09v-46.38h80.91v46.38c-5.99,1.15-8.53,4.13-8.53,7.81,0,3.9,1.61,7.12,7.15,12.86l23.05,22.27c.69-2.76.92-4.82.92-7.12,0-15.84-6.68-28.7-16.6-35.82v-46.38h34.58v46.84c-5.3,8.72-10.83,22.96-14.52,41.56l-7.61,36.74h-72.61Z" fill="#000" stroke-width="0"/>
      <path d="M275.45,189.43c-49.33,0-67.54-17.91-67.54-65.9s18.21-63.83,67.54-63.83,67.31,18.37,67.31,63.83c0,47.76-18.21,65.9-67.31,65.9ZM275.45,100.34c-8.53,0-10.83,4.36-10.83,22.96,0,19.52,2.3,25.26,10.83,25.26s10.6-5.74,10.6-25.26-2.31-22.96-10.6-22.96Z" fill="#000" stroke-width="0"/>
      <path d="M484.51,126.29c0,10.79,1.15,14.24,8.07,14.24v46.61h-60.16v-49.83h-2.54c-.23,46.84-11.52,53.96-38.26,53.96s-36.65-13.55-36.42-45v-23.65c0-9.64-1.15-13.78-5.99-13.78v-46.84h62.47v68.19c0,9.41,2.07,11.71,8.07,11.71,4.84,0,8.3-2.53,8.3-10.1v-9.18c0-9.64-1.84-13.78-10.6-13.78v-46.84h67.08v64.29Z" fill="#000" stroke-width="0"/>
      <path d="M565.19,126.52c0,9.64,1.15,13.78,7.38,13.78v46.84h-72.38v-46.84c7.15,0,8.3-4.13,8.3-13.78v-32.83c0-10.56-1.15-13.78-8.07-13.78v-46.61h64.77v93.22Z" fill="#000" stroke-width="0"/>
      <path d="M706.49,126.98c0,10.1,1.15,13.32,8.3,13.32v46.84h-60.16v-48.91h-2.77c-2.07,36.51-10.83,51.2-36.42,51.2s-38.72-18.14-38.72-60.16c0-47.53,11.29-69.57,36.65-69.57,18.67,0,31.12,6.89,34.34,36.97h2.3v-18.14c0-9.64-2.07-13.78-12.68-13.78v-31.46h69.15v93.68ZM650.02,128.36v-26.18c-2.07-.92-4.38-1.38-6.92-1.38-7.61,0-9.68,1.38-9.68,24.8,0,13.78,3,16.3,8.3,16.3s8.3-4.13,8.3-13.55Z" fill="#000" stroke-width="0"/>
    </g>
    <g>
      <path d="M1376.94,117.79c-34.83,0-40.13,2.53-40.13,11.48v1.84c0,6.43,4.04,9.18,26.5,9.18v46.84h-97.42v-46.84c7.57,0,9.09-4.13,9.09-13.78v-4.13c0-10.56-1.51-13.78-9.09-13.78v-46.61h65.88v62.23h2.78c2.78-55.34,11.61-64.29,42.4-64.29v57.86Z" fill="#000" stroke-width="0"/>
      <path d="M1447.61,116.65h-63.35v-54.65h58.05v51.66h2.78c.5-44.54,14.13-53.96,41.39-53.96s38.36,12.86,38.36,45.92v28.47c0,6.2.76,7.12,3.03,7.12,3.03,0,4.54-.92,4.04-18.83h3.53c.5,8.5.76,16.07.76,22.5,0,31.69-5.05,44.54-34.33,44.54-30.79,0-36.6-17.22-36.6-52.81h-3.03c-.5,38.58-11.86,52.81-43.16,52.81s-39.88-11.71-39.88-32.15c0-23.42,14.89-33.98,47.2-33.98s33.82-1.15,33.82-8.04v-2.99c0-4.13-1.26-6.43-5.05-6.43-4.79,0-7.07,4.13-7.57,10.79ZM1460.23,130.65v-8.27c-6.31,4.59-17.16,5.74-17.16,13.32,0,3.21,2.27,5.28,6.82,5.28,5.8,0,10.35-1.15,10.35-10.33Z" fill="#000" stroke-width="0"/>
      <path d="M1608.89,62h17.67v46.61h-17.67v18.83c0,5.74,1.77,8.04,6.31,8.04,5.05,0,7.57-3.67,7.07-19.75h3.53c.25,5.05.25,9.87.25,17.91,0,42.48-11.86,55.8-38.36,55.8-23.73,0-40.64-6.66-40.64-40.64v-40.18h-7.82v-41.33c25.24,0,60.57-13.32,67.14-32.61h2.52v27.32Z" fill="#000" stroke-width="0"/>
      <path d="M1712.87,187.14h-77.74v-46.84c7.57,0,9.09-4.13,9.09-13.78v-32.38c0-10.79-1.51-14.24-9.09-14.24v-46.61h66.89l-1.01,78.53h2.78c.5-44.77,12.62-52.12,42.15-52.12s39.88,12.86,39.88,43.17v23.65c0,9.64,1.01,13.78,6.56,13.78v46.84h-75.21v-46.84c5.55,0,6.56-4.13,6.56-13.78v-7.58c0-9.41-2.27-11.71-8.83-11.71-5.3,0-8.83,2.53-8.83,10.1v9.18c0,9.64,1.26,13.78,6.81,13.78v46.84Z" fill="#000" stroke-width="0"/>
      <path d="M1876.16,189.43c-44.67,0-77.99-12.63-77.99-65.9,0-45.69,20.7-63.83,73.95-63.83s67.39,21.81,67.39,50.29c0,4.59,0,9.18-.25,14.24-19.69.46-48.96,0-76.48,0,2.52,12.63,13.12,16.07,36.09,16.07,27.26,0,34.58-3.67,34.07-11.48h6.31c0,41.56-14.64,60.62-63.1,60.62ZM1862.28,121.01h19.94c-.25-17.68-3.79-21.12-9.84-21.12-6.56,0-10.35,4.59-10.35,17.22,0,1.38,0,2.76.25,3.9Z" fill="#000" stroke-width="0"/>
      <path d="M2057.88,117.79c-34.83,0-40.13,2.53-40.13,11.48v1.84c0,6.43,4.04,9.18,26.5,9.18v46.84h-97.42v-46.84c7.57,0,9.09-4.13,9.09-13.78v-4.13c0-10.56-1.51-13.78-9.09-13.78v-46.61h65.88v62.23h2.78c2.78-55.34,11.61-64.29,42.4-64.29v57.86Z" fill="#000" stroke-width="0"/>
    </g>
    <g>
      <path d="M2178.04,151.89c0,27-15.34,38.18-37.62,38.18s-37.37-10.86-37.37-38.18,15.08-38.18,37.37-38.18,37.62,10.86,37.62,38.18Z" fill="#000" stroke-width="0"/>
      <path d="M2274.01,151.89c0,27-15.34,38.18-37.62,38.18s-37.37-10.86-37.37-38.18,15.08-38.18,37.37-38.18,37.62,10.86,37.62,38.18Z" fill="#000" stroke-width="0"/>
      <path d="M2374.26,151.89c0,27-15.34,38.18-37.62,38.18s-37.37-10.86-37.37-38.18,15.08-38.18,37.37-38.18,37.62,10.86,37.62,38.18Z" fill="#000" stroke-width="0"/>
    </g>
    <g>
      <path d="M780.65,216.53v-50.29h87.13c3,0,4.61-1.15,4.61-2.98,0-2.99-1.61-3.9-16.13-3.9h-56.01l-13.14-42.71c-1.61-5.28-3.23-8.04-6.92-8.27v-46.38h86.9v46.38c-9.68.23-13.37,3.21-13.37,8.5,0,2.3.46,4.59,1.84,7.58l14.06,31.46h3.46V62h30.2v46.61c-9.91,10.79-21.21,27.32-25.58,48.91-10.6,50.97-19.59,59.01-49.79,59.01h-47.25Z" fill="#000" stroke-width="0"/>
      <path d="M975.66,189.43c-49.33,0-67.54-17.91-67.54-65.9s18.21-63.83,67.54-63.83,67.31,18.37,67.31,63.83c0,47.76-18.21,65.9-67.31,65.9ZM975.66,100.34c-8.53,0-10.83,4.36-10.83,22.96,0,19.52,2.3,25.26,10.83,25.26s10.6-5.74,10.6-25.26-2.3-22.96-10.6-22.96Z" fill="#000" stroke-width="0"/>
      <path d="M1184.72,126.29c0,10.79,1.15,14.24,8.07,14.24v46.61h-60.16v-49.83h-2.54c-.23,46.84-11.52,53.96-38.26,53.96s-36.65-13.55-36.42-45v-23.65c0-9.64-1.15-13.78-5.99-13.78v-46.84h62.47v68.2c0,9.41,2.07,11.71,8.07,11.71,4.84,0,8.3-2.53,8.3-10.1v-9.18c0-9.64-1.84-13.78-10.6-13.78v-46.84h67.08v64.29Z" fill="#000" stroke-width="0"/>
    </g>
  </g>
</svg>