
<svg xmlns="http://www.w3.org/2000/svg" version="1.1" xmlns:xlink="http://www.w3.org/1999/xlink" preserveAspectRatio="none" x="0px" y="0px" width="1608px" height="1084px" viewBox="0 0 1608 1084">
<defs>
<g id="symbol4_0_Layer3_0_FILL">
<path fill="#FFA500" stroke="none" d="
M 6368.5 14183.3
Q 6371 13929.9 6373.85 13664.55 6302.6 13649.25 6226.15 13648.85 6146.2 13648.4 6085 13664.55 6079.75 13845.9 6081.95 14183.2 6082.85 14357.1 6085 14561.15 6085 14630.2 6082.85 14818.1 6080.2 15064.95 6076.7 15173.35 6074.55 15240.2 6076.7 15431.55 6078.45 15596.75 6074.1 15634.3 6194.7 15639.1 6372.95 15664.45 6358.55 15568.75 6358.55 15233.65 6359 14976.25 6365.1 14778.35 6363.5 14686.1 6368.5 14183.3 Z"/>
</g>

<g id="symbol4_0_Layer2_0_FILL">
<path fill="#FFA500" stroke="none" d="
M 6827.6 7201.8
Q 6793.55 7181.25 6750.7 7168.15 6708.75 7155.05 6679.5 7155.05 6617 7155.05 6523.05 7181.25 6441.8 7203.55 6380.6 7231.95 6377.2 7226.5 6375.4 7265.75 6373.85 7298.95 6373.85 7353.3 6373.85 7403.55 6375.05 7438.5 6376.3 7475.5 6378 7465.3 6464.5 7412.85 6547.95 7412.85 6583.8 7412.85 6603.9 7430.35 6622.7 7446.5 6624.85 7476.2 6630.1 7525.15 6633.6 7652.3 6635.8 7743.2 6635.8 7789.05 6635.35 7798.25 6630.1 8034.2 6625.3 8238.25 6621.8 8285.45 6723.6 8299.4 6760.75 8305.1 6850.75 8319.1 6923.75 8334.8 6920.25 8247.85 6919.35 8157.4 6918.95 8075.7 6921.1 8033.3 6922.85 7973.9 6925.05 7704.75 6926.8 7472.25 6926.8 7429.45 6926.8 7342.05 6892.7 7276.5 6865.65 7224.1 6827.6 7201.8 Z"/>
</g>

<g id="symbol4_0_Layer2_1_FILL">
<path fill="#FFA500" stroke="none" d="
M 472.4 286.15
Q 472.4 262.95 454.55 249 435.05 233.7 398.6 233.7 387.2 233.7 386.9 233.7 380.45 233.85 371.9 234.65
L 371.6 294.95
Q 371.6 322.6 370.95 384.45 370.95 394.3 370.55 413.45 370.2 432.65 369.7 447.25 374.4 447.25 387.05 445.7 403 443.75 406.75 443.45 405.7 433.35 405 416.75 404.55 405.9 403.95 385.05 403.95 367.8 403.3 363.7
L 414 361.85
Q 421.85 377.25 433.35 402.6 446.15 430.8 453.85 450.35 458.65 448.75 470.05 443.95 480.75 439.45 486.2 437.8 478 420.75 459.9 385.1 447.7 361 443.5 350.5 456.5 342.4 464.55 324.1 472.4 306.3 472.4 286.15
M 427.15 267.15
Q 435.65 273.45 435.65 290.25 435.65 309.05 431.35 319.75 426.4 332.05 415.25 335.15 413.1 335.75 409 336.5 404.9 337.2 403.95 337.35 403.75 333.45 403.6 302.7 403.45 268.9 403.3 262 420.1 262 427.15 267.15 Z"/>
</g>

<g id="symbol4_0_Layer2_2_FILL">
<path fill="#FFA500" stroke="none" d="
M 538.9 332.7
Q 547.05 333.75 552.15 336.1 555.1 337.7 556.15 341.85 557.15 345.65 557.15 354 538.35 360 538.3 360.05 523.95 364.95 512.6 370.3 501.9 375.25 496.95 386.4 493.1 395.15 493.1 406.75 493.1 425.05 504.55 438.75 509.3 444.5 514.95 447.8 520.45 451 525.15 451 533.55 451 543.8 445.6 552.35 441.05 558.4 435 558.75 437.5 559.85 446.35 561.1 454.6 562.5 458.2 569.15 454.9 577.15 452.9 581.85 451.7 592 449.45 590.85 444.4 590.15 435.25 589.5 426.45 589.5 417.7 589.2 346.75 589.2 344.85 589.2 336 585.45 327.9 581.35 318.95 574.45 315.35 565.6 310.8 550.8 307.85 539.75 305.65 520.1 303.45 520.45 314.1 518.55 331.7 530.95 331.7 538.9 332.7
M 528.3 392.95
Q 531.95 388.2 537.05 386 539.15 384.95 547.75 381.95 555.85 379.15 557.5 378.15 557.7 381.35 557.25 394.6 556.85 407 556.55 409.85 553.4 413.45 548.1 417.05 540.7 422.1 535.2 422.1 529.85 422.1 527.15 417 524.5 412.1 524.5 402.95 524.5 397.95 528.3 392.95 Z"/>
</g>

<g id="symbol4_0_Layer2_3_FILL">
<path fill="#FFA500" stroke="none" d="
M 655.05 289.2
Q 655.75 275.3 655.75 270.15 647.3 273.35 634.65 277.15 625.4 279.85 621.55 280.8 621.2 286.35 621.05 294.25 620.9 301.75 620.6 306.25 620.6 308.35 619.35 310.95 615.55 311.65 603 312.85 603 327 604.25 337.35 607.7 336.7 612.15 336.55 615.9 336.45 618.4 336.7 618.25 340.85 618.75 350.35 619.35 361.1 619.35 365.9
L 619.35 410.8
Q 619.35 426.35 625 435.9 632.4 448.4 652.3 457.9 655.65 452.95 664.5 443.65 669.1 438.85 674.6 433.4 666.2 430.15 658.7 423.15 651.3 416.25 651.05 411.75 650.4 398.3 650.6 378.05 650.8 360.45 651.35 353.05 651.55 351.45 651.85 345.05 652.2 337.95 652.3 336.4 655.7 336 662.1 335.8 671.05 335.5 677.75 336.1 676.95 328.75 677.15 319.15 677.3 311.9 677.75 308.75 674.05 309.7 666.4 310.25 655.2 311.1 653.85 311.25 654.65 296.9 655.05 289.2 Z"/>
</g>

<g id="symbol4_0_Layer2_4_FILL">
<path fill="#FFA500" stroke="none" d="
M 839.75 386.65
Q 858.5 385.8 865.6 385.45 888.65 384.25 905.4 382.85 903.65 347.9 893.25 328.1 881.85 306.55 861.75 306.55 836.45 306.55 823.35 320.4 807.1 337.6 807.1 377.85 807.1 396.05 811.1 409.7 815.6 425.05 825 433.75 831.95 440.45 843.1 444.85 854 449.1 863.6 449.1 871.9 449.1 887.2 443.65 904.45 437.55 909.15 430.9 902.2 420.3 899.4 411.15 890.4 415.65 880 418.15 871.35 420.25 865.5 420.25 860.5 420.25 854.6 417.1 849.35 414.3 847 411.15 840.2 402.35 839.75 386.65
M 857.05 332.3
Q 864.3 332.3 868.35 340.55 871.7 347.4 873.05 360.55 860.65 361.8 854.2 362.15 852.05 362.55 846.75 362.5 842.05 362.45 839.75 362.15 838.85 348.95 844.5 340.25 849.65 332.3 857.05 332.3 Z"/>
</g>

<g id="symbol4_0_Layer2_5_FILL">
<path fill="#FFA500" stroke="none" d="
M 998.95 331.7
Q 995.25 322.2 993.6 317 991.5 310.2 990.15 302.8 979.35 304.55 970.25 309.1 962.35 313 957.2 318.2
L 957.2 300.6
Q 951.7 300.35 944.85 299.75 931.2 298.45 924.55 296.5 925.15 308.45 925.15 345.8
L 925.15 385.7
Q 925.15 392.8 924.3 412.25 923.25 435.85 922 446.3 932.2 446.55 939.9 447.35 947.75 448.2 956.85 450.05 955.6 433.25 955.6 400.5 955.6 375.2 956.25 352.1 961.5 343.2 970.8 338.25 981.8 332.35 998.95 331.7 Z"/>
</g>

<g id="symbol4_0_Layer2_6_FILL">
<path fill="#FF6347" stroke="none" d="
M 196.85 12.2
Q 187.35 11.3 180.05 9.65 173.1 8.05 163.25 4.7 160.05 29.35 153.6 73.55 146.9 119.4 142.55 145.65 139.9 131.5 127.75 73.05 116.95 20.9 114.9 8.15 107.35 9.05 100.35 9 94.4 8.95 86.95 8.15 85.55 17.7 73.6 73.6 59.95 137.35 57.45 150.4 53.8 129.55 45.65 70.75 36.9 7.45 35.75 0.3 25.85 5.05 16.6 8.1 9.6 10.35 0 12.55 8.6 57.35 36.4 214.45 50.65 214.45 70 218.5 72.4 206.05 84.35 154.2 96.05 103.55 100.15 81.6 104.45 105.05 115.2 158.4 125.15 207.6 127.45 221.05 142.55 220.1 158.85 217.6 159.2 215.8 176.65 119.95 190.1 46.4 196.85 12.2 Z"/>
</g>

<g id="symbol4_0_Layer2_7_FILL">
<path fill="#FF6347" stroke="none" d="
M 293.7 84.35
Q 279.3 71.25 255.55 71.25 231.45 71.25 217.1 88.3 200.95 107.4 200.95 144.4 200.95 156.9 204.15 168.95 207.05 179.75 211.6 187.1 228.4 213.5 255.25 213.5 266 213.5 276.05 207.95 286.15 202.35 293.9 192 311.15 168.95 311.15 132.8 311.15 100.2 293.7 84.35
M 232.95 138.75
Q 232.95 117.85 238.2 108.35 242.85 99.85 252.1 99.85 262.7 99.85 269.7 109.05 278.15 120.15 278.15 141.6 278.15 162.2 272.15 173.65 266.55 184.3 257.45 184.3 247.7 184.3 240.5 171.65 232.95 158.4 232.95 138.75 Z"/>
</g>

<g id="symbol4_0_Layer2_8_FILL">
<path fill="#FF6347" stroke="none" d="
M 324.95 77.2
Q 325.3 80.95 325.85 92.9 326.45 105.3 326.55 106.75 326.95 111.15 327.25 133.15 327.45 151.2 327.45 165.45 327.45 174.3 327.95 184.4 328.6 196.55 329.65 201.9 335.6 215.05 349.75 215.05 354.2 215.05 368.6 211.05 381.4 207.45 386.5 205.35
L 387.45 220.1
Q 397 219.75 402.75 220.1 411 220.6 420.75 222.75
L 420.75 65.6
Q 412.95 68.45 402.8 70.75 394.45 72.65 386.8 73.75 387.35 78.1 387.5 88.1
L 387.75 103.6
Q 388.35 116.3 388.45 142.8 388.5 157.05 388.4 178 384.9 180.8 379.1 182.75 373.5 184.6 368.9 184.6 363.85 184.6 362.05 182 360.15 179.3 360.15 171.4 359.5 89.15 359.5 76.9 352.05 77.65 343.2 77.75 333.55 77.9 324.95 77.2 Z"/>
</g>

<g id="symbol4_0_Layer2_9_FILL">
<path fill="#FF6347" stroke="none" d="
M 594.05 6.25
Q 588.55 7.25 574.3 8.6
L 561.1 9.7
Q 562 30.45 562.35 47.1 562.95 72.2 562.95 78.5 551.6 74.3 550.85 74.05 543.05 71.55 537.85 71.55 527.65 71.55 515.85 81.6 506.6 89.55 502.35 97.3 498.75 103.95 495.9 116.5 492.3 132.45 492.3 149.75 492.3 178.95 503.9 197.65 514.9 215.4 530.6 215.4 538 215.4 547.4 212.6 557.35 209.65 563.3 205.35
L 569.55 218.5
Q 576.2 215.7 580.85 214.45 586.5 212.9 594.05 212.25 593.2 203.1 593.4 193.7 593.55 185.5 594.35 181.45
L 594.05 6.25
M 561.7 107.05
Q 562.85 114.7 562.55 140.45 562.4 154.55 562 180.2 558.5 183.95 553.75 186.2 549.05 188.4 544.75 188.4 535.25 188.4 530.25 173.8 525.6 160.35 525.6 137.5 525.6 116.1 529.65 107.95 533.2 100.75 541.9 100.75 546.3 100.75 552.4 102.7 558.35 104.65 561.7 107.05 Z"/>
</g>

<g id="symbol4_0_Layer2_10_FILL">
<path fill="#FF6347" stroke="none" d="
M 857.95 84.35
Q 843.55 71.25 819.8 71.25 795.7 71.25 781.3 88.3 765.15 107.45 765.15 144.4 765.15 156.9 768.4 168.95 771.3 179.75 775.85 187.1 792.65 213.5 819.5 213.5 830.25 213.5 840.3 207.95 850.4 202.35 858.15 192 875.4 168.95 875.4 132.8 875.4 100.2 857.95 84.35
M 816.35 99.85
Q 826.95 99.85 833.95 109.05 842.4 120.15 842.4 141.6 842.4 162.2 836.4 173.65 830.8 184.3 821.7 184.3 811.95 184.3 804.75 171.65 797.2 158.4 797.2 138.75 797.2 117.85 802.45 108.35 807.1 99.85 816.35 99.85 Z"/>
</g>

<g id="symbol4_0_Layer2_11_FILL">
<path fill="#FF6347" stroke="none" d="
M 984.95 220.1
L 984.95 65.6
Q 977.15 68.45 967.05 70.75 958.7 72.65 951.05 73.75 951.6 78.1 951.75 88.1
L 952 103.6
Q 952.6 116.3 952.7 142.8 952.75 157.05 952.65 178 949.15 180.8 943.35 182.75 937.75 184.6 933.15 184.6 928.1 184.6 926.3 182 924.35 179.25 924.35 171.4 923.75 89.15 923.75 76.9 916.3 77.65 907.4 77.75 897.8 77.9 889.2 77.2 889.6 81.05 890.1 92.9 890.7 105.75 890.75 106.75 891.2 111.15 891.45 133.15 891.7 151 891.7 165.45 891.7 174.3 892.2 184.4 892.85 196.55 893.9 201.9 899.85 215.05 914 215.05 918.45 215.05 932.85 211.05 945.65 207.45 950.75 205.35
L 951.7 216.95
Q 958.4 216.75 968.7 217.8 977.4 218.7 984.95 220.1 Z"/>
</g>

<g id="symbol4_0_Layer1_0_FILL">
<path fill="#FF6347" stroke="none" d="
M 4039.9 38
Q 3997.5 24.45 3911 0
L 3878.25 1973.7
Q 3933.7 1989.4 3998.8 2025.25 4083.15 2071.15 4139.95 2130.55 4141.25 2052.8 4142.15 1704.95 4143 1393 4144.35 1374.65
L 4158.3 82.15
Q 4116.8 62.5 4039.9 38 Z"/>
</g>

<g id="Mask_FlashAICB_Assets_0_Layer_1__Clip_Group__0_2_MASK_0_FILL">
<path fill="#FFFFFF" stroke="none" d="
M 124.65 0
L 0 0 0 207.65 124.65 207.65 124.65 0 Z"/>
</g>

<g id="FlashAICB_Assets_0_Layer_1__Clip_Group__0_Layer2_0_FILL">
<path fill="#FF6347" stroke="none" d="
M 106.6 7.35
Q 99.05 4.7 87.9 0 82.5 30.1 65.9 79.75 59.55 65.75 49.9 38.5 41.1 13.7 37.65 1.25 20.25 9.05 0 13.15 10.7 34.9 25.55 66.7 43.1 104.4 49.9 121.2 49.2 151.85 48.6 166.9 47.55 193.5 45.85 206.75 55.55 205.7 63.6 206.05 69.6 206.3 78.75 207.65 79.05 200.95 81.5 159.15 83.5 124.55 83.5 116.8 89.1 101.7 101.85 69.35 115 35.9 124.65 12.55 115.15 10.3 106.6 7.35 Z"/>
</g>
</defs>

<g transform="matrix( 0.151031494140625, 0, 0, 0.151031494140625, 128,-382.25) ">
<g transform="matrix( 1, 0, 0, 1, 0,0) ">
<use xlink:href="#symbol4_0_Layer3_0_FILL"/>
</g>

<g transform="matrix( 1, 0, 0, 1, 0,0) ">
<use xlink:href="#symbol4_0_Layer2_0_FILL"/>
</g>

<g transform="matrix( 8.738937377929688, 0, 0, 8.738937377929688, 0,4389.4) ">
<use xlink:href="#symbol4_0_Layer2_1_FILL"/>
</g>

<g transform="matrix( 8.738937377929688, 0, 0, 8.738937377929688, 0,4389.4) ">
<use xlink:href="#symbol4_0_Layer2_2_FILL"/>
</g>

<g transform="matrix( 8.738937377929688, 0, 0, 8.738937377929688, 0,4389.4) ">
<use xlink:href="#symbol4_0_Layer2_3_FILL"/>
</g>

<g transform="matrix( 8.738937377929688, 0, 0, 8.738937377929688, 0,4389.4) ">
<use xlink:href="#symbol4_0_Layer2_4_FILL"/>
</g>

<g transform="matrix( 8.738937377929688, 0, 0, 8.738937377929688, 0,4389.4) ">
<use xlink:href="#symbol4_0_Layer2_5_FILL"/>
</g>

<g transform="matrix( 8.738937377929688, 0, 0, 8.738937377929688, 0,4389.4) ">
<use xlink:href="#symbol4_0_Layer2_6_FILL"/>
</g>

<g transform="matrix( 8.738937377929688, 0, 0, 8.738937377929688, 0,4389.4) ">
<use xlink:href="#symbol4_0_Layer2_7_FILL"/>
</g>

<g transform="matrix( 8.738937377929688, 0, 0, 8.738937377929688, 0,4389.4) ">
<use xlink:href="#symbol4_0_Layer2_8_FILL"/>
</g>

<g transform="matrix( 8.738937377929688, 0, 0, 8.738937377929688, 0,4389.4) ">
<use xlink:href="#symbol4_0_Layer2_9_FILL"/>
</g>

<g transform="matrix( 8.738937377929688, 0, 0, 8.738937377929688, 0,4389.4) ">
<use xlink:href="#symbol4_0_Layer2_10_FILL"/>
</g>

<g transform="matrix( 8.738937377929688, 0, 0, 8.738937377929688, 0,4389.4) ">
<use xlink:href="#symbol4_0_Layer2_11_FILL"/>
</g>

<g transform="matrix( 1, 0, 0, 1, 0,0) ">
<use xlink:href="#symbol4_0_Layer1_0_FILL"/>
</g>

<g transform="matrix( 8.9527587890625, 0, 0, 8.9527587890625, 5686.4,4359.8) ">
<mask id="Mask_Mask_1">
<g transform="matrix( 1, 0, 0, 1, 0,0) ">
<use xlink:href="#Mask_FlashAICB_Assets_0_Layer_1__Clip_Group__0_2_MASK_0_FILL"/>
</g>
</mask>

<g mask="url(#Mask_Mask_1)">
<g transform="matrix( 1, 0, 0, 1, 0,0) ">
<use xlink:href="#FlashAICB_Assets_0_Layer_1__Clip_Group__0_Layer2_0_FILL"/>
</g>
</g>
</g>
</g>
</svg>
