<svg width="1319" height="579" viewBox="0 0 1319 579" fill="none" xmlns="http://www.w3.org/2000/svg">
<path d="M1031.18 398.23C1027.75 396.16 1023.88 394.47 1019.57 393.15C1015.35 391.83 1011.76 391.17 1008.82 391.17C1002.53 391.17 994.65 392.49 985.19 395.13C977.01 397.38 969.84 399.93 963.68 402.79C963.34 402.24 963.08 403.94 962.89 407.89C962.73 411.23 962.66 415.64 962.66 421.11C962.66 426.17 962.72 430.46 962.84 433.98C962.97 437.71 963.11 439.05 963.29 438.03C972 432.75 980.56 430.11 988.96 430.11C992.57 430.11 995.39 430.99 997.41 432.75C999.3 434.38 1000.36 436.68 1000.57 439.67C1001.1 444.6 1001.54 453.46 1001.89 466.27C1002.11 475.42 1002.22 482.31 1002.22 486.92C1002.17 487.85 1001.89 500.19 1001.36 523.95C1000.88 544.5 1000.46 557.14 1000.11 561.9C1010.36 563.3 1017.36 564.29 1021.1 564.87C1030.16 566.28 1038.37 567.77 1045.72 569.36C1045.37 560.61 1045.15 551.67 1045.06 542.57C1045.02 534.34 1045.11 528.1 1045.32 523.83C1045.5 517.85 1045.7 501.31 1045.92 474.21C1046.1 450.8 1046.18 436.94 1046.18 432.63C1046.18 423.83 1044.46 416.13 1041.03 409.53C1038.31 404.25 1035.03 400.49 1031.2 398.25L1031.18 398.23Z" fill="#FFA500"/>
<path d="M623.5 351.15C623.5 330.74 615.65 314.39 599.94 302.12C582.78 288.66 560.554 283.135 526.09 281.93L488.786 281.491C488.786 281.491 490.728 307.434 490.65 322.975C490.572 338.516 490.45 362.77 490.45 362.77C490.45 387.1 490.16 426.47 489.59 480.9C489.59 489.57 489.41 502.33 489.06 519.18C488.75 536.07 488.38 550.94 487.94 563.79C492.08 563.79 499.71 563.11 510.84 561.74C524.87 560.02 533.54 559.03 536.84 558.77C535.92 549.88 535.15 538.14 534.53 523.53C534.13 513.98 533.67 500.04 533.14 481.69C533.14 466.51 532.85 457.12 532.28 453.51L546.4 451.07C553.31 464.62 561.82 482.55 571.94 504.85C583.2 529.66 592.22 550.67 599 567.87C603.22 566.46 610.35 563.65 620.38 559.42C629.8 555.46 636.9 552.75 641.7 551.3C634.48 536.3 622.91 513.11 606.99 481.74C596.26 460.53 589.04 445.31 585.34 436.07C596.78 428.94 606.04 417.33 613.12 401.23C620.03 385.57 623.48 368.87 623.48 351.14M563.78 326.07C571.26 331.61 575 341.78 575 356.56C575 373.1 573.11 386.08 569.32 395.5C564.96 406.32 557.88 413.1 548.07 415.83C546.18 416.36 543.43 416.95 539.82 417.61C536.21 418.23 533.99 418.6 533.15 418.73C532.97 415.3 532.82 400.05 532.69 373C532.56 343.26 532.43 325.35 532.29 319.28C547.07 319.28 557.57 321.55 563.77 326.08L563.78 326.07Z" fill="#FFA500"/>
<path d="M711.27 412.59C718.44 413.51 724.27 415.01 728.76 417.08C731.36 418.49 733.12 421.02 734.04 424.67C734.92 428.01 735.36 433.36 735.36 440.71C718.82 445.99 710.52 448.65 710.48 448.7C697.85 453.01 686.55 457.52 676.56 462.23C667.15 466.59 660.26 473.67 655.9 483.48C652.51 491.18 650.82 500.13 650.82 510.34C650.82 526.44 655.86 540.52 665.93 552.58C670.11 557.64 674.69 561.62 679.66 564.52C684.5 567.34 688.99 568.74 693.12 568.74C700.51 568.74 708.72 566.36 717.74 561.61C725.26 557.61 731.69 552.94 737.01 547.62C737.32 549.82 737.96 554.81 738.92 562.6C740.02 569.86 741.19 575.07 742.42 578.24C748.27 575.34 754.72 573 761.76 571.24C765.9 570.18 772.43 568.67 781.36 566.69C780.35 562.25 779.53 556 778.92 547.95C778.35 540.21 778.06 532.49 778.06 524.79C777.8 462.36 777.66 430.31 777.66 428.64C777.66 420.85 776.01 413.4 772.71 406.27C769.1 398.39 764.26 392.87 758.19 389.71C750.4 385.71 740 382.41 726.98 379.81C717.26 377.87 703.75 375.94 686.46 374C686.77 383.37 686.09 395.8 684.41 411.29C695.32 411.29 704.27 411.73 711.27 412.61M697.28 492.11C700.49 487.93 704.34 484.87 708.83 482.94C710.68 482.02 715.39 480.23 722.95 477.59C730.08 475.13 734.37 473.45 735.82 472.57C736 475.39 735.89 482.62 735.49 494.28C735.14 505.19 734.83 511.9 734.57 514.41C731.8 517.58 728.08 520.75 723.42 523.91C716.91 528.35 711.23 530.58 706.39 530.58C701.55 530.58 698.14 528.34 695.77 523.85C693.44 519.54 692.27 513.36 692.27 505.31C692.27 500.91 693.94 496.51 697.29 492.11H697.28Z" fill="#FFA500"/>
<path d="M864.57 355.17C865.19 342.94 865.49 334.56 865.49 330.03C858.05 332.85 848.77 335.93 837.64 339.27C829.5 341.65 823.74 343.25 820.35 344.09C820.04 348.97 819.82 354.89 819.69 361.84C819.56 368.44 819.36 373.72 819.1 377.68C819.1 379.53 818.55 381.6 817.45 383.88C814.11 384.5 806.91 385.33 795.87 386.39C795.87 398.84 796.42 409.62 797.52 418.73C800.56 418.16 804.03 417.81 807.95 417.67C811.25 417.58 814 417.65 816.2 417.87C816.07 421.52 816.22 427.53 816.66 435.89C817.19 445.35 817.45 452.19 817.45 456.41V515.67C817.45 529.35 819.94 540.4 824.91 548.8C831.42 559.8 843.43 569.48 860.94 577.84C863.89 573.48 869.26 567.22 877.04 559.03C881.09 554.81 885.53 550.3 890.37 545.5C882.98 542.64 875.98 538.13 869.38 531.97C862.87 525.9 859.5 520.88 859.28 516.92C858.71 505.09 858.51 490.26 858.69 472.44C858.87 456.95 859.2 445.95 859.68 439.44C859.86 438.03 860.08 434.51 860.34 428.88C860.65 422.63 860.85 418.83 860.93 417.46C863.92 417.11 868.23 416.84 873.86 416.67C881.74 416.41 888.62 416.54 894.52 417.07C893.82 410.6 893.55 403.15 893.73 394.7C893.86 388.32 894.13 383.75 894.52 380.97C891.26 381.81 886.27 382.47 879.54 382.95C869.69 383.7 864.16 384.14 862.98 384.27C863.68 371.64 864.21 361.94 864.56 355.17H864.57Z" fill="#FFA500"/>
<path d="M1108.35 483.79C1124.85 483.04 1136.22 482.51 1142.47 482.21C1162.75 481.15 1180.26 480.01 1195 478.78C1193.46 448.03 1188.11 423.94 1178.96 406.52C1168.93 387.56 1155.07 378.08 1137.38 378.08C1115.12 378.08 1098.22 384.17 1086.7 396.36C1072.4 411.49 1065.25 436.77 1065.25 472.19C1065.25 488.2 1067.01 502.22 1070.53 514.23C1074.49 527.74 1080.6 538.32 1088.88 545.97C1095 551.87 1102.96 556.75 1112.77 560.62C1122.36 564.36 1131.38 566.23 1139.83 566.23C1147.13 566.23 1157.52 563.83 1170.98 559.04C1186.16 553.67 1195.82 548.06 1199.95 542.21C1193.83 532.88 1189.55 524.19 1187.08 516.14C1179.16 520.1 1170.63 523.18 1161.47 525.38C1153.86 527.23 1147.48 528.15 1142.33 528.15C1137.93 528.15 1133.14 526.76 1127.94 523.99C1123.32 521.53 1119.98 518.91 1117.91 516.14C1111.93 508.4 1108.74 497.62 1108.34 483.8M1131.18 412.06C1137.56 412.06 1142.53 415.69 1146.09 422.95C1149.04 428.98 1151.11 437.78 1152.29 449.35C1141.38 450.45 1133.09 451.15 1127.41 451.46C1125.52 451.81 1122.24 451.97 1117.58 451.92C1113.44 451.88 1110.36 451.72 1108.34 451.46C1107.55 439.85 1109.64 430.21 1114.61 422.56C1119.14 415.56 1124.66 412.07 1131.17 412.07L1131.18 412.06Z" fill="#FFA500"/>
<path d="M1318.47 411.27C1315.21 402.91 1312.86 396.44 1311.41 391.87C1309.56 385.89 1308.04 379.64 1306.86 373.13C1297.36 374.67 1288.6 377.44 1280.59 381.45C1273.64 384.88 1267.9 388.89 1263.37 393.46V370.23C1258.53 370.01 1253.1 369.64 1247.07 369.11C1235.06 367.97 1226.13 366.54 1220.28 364.82C1220.81 375.33 1221.07 397.02 1221.07 429.89V482.55C1221.07 488.8 1220.7 500.48 1219.95 517.59C1219.03 538.36 1218.01 553.34 1216.91 562.53C1225.88 562.75 1233.76 563.21 1240.54 563.92C1247.45 564.67 1254.9 565.86 1262.91 567.48C1261.81 552.7 1261.26 530.9 1261.26 502.08C1261.26 479.82 1261.55 458.52 1262.12 438.2C1266.74 430.37 1273.14 424.28 1281.32 419.92C1291 414.73 1303.38 411.85 1318.47 411.27Z" fill="#FFA500"/>
<path d="M275.357 44.6048C266.997 43.8148 259.607 42.6948 253.187 41.2348C247.067 39.8248 239.677 37.6448 231.017 34.7048C228.197 56.3948 208.41 183.49 202.73 222.38C196.83 262.72 191.97 294.44 188.15 317.54C185.82 305.09 179.31 273.15 168.62 221.72C159.12 175.83 153.46 147.28 151.66 136.06C145.02 136.85 138.62 137.23 132.46 137.18C127.22 137.14 121.33 136.76 114.77 136.06C113.54 144.46 107.66 173.26 97.15 222.44C85.14 278.53 78.03 312.32 75.83 323.8C72.62 305.45 67.43 270.41 60.26 218.67C52.56 162.97 48.21 131.98 47.19 125.69C38.48 129.87 30.05 133.3 21.91 135.98C15.75 137.96 8.45 139.92 0 141.85C7.57 181.27 23.58 270.1 48.04 408.33C60.58 408.33 75.36 410.11 92.39 413.68C94.5 402.73 100.82 374.44 111.33 328.81C121.62 284.24 128.58 252.3 132.18 232.99C135.96 253.62 142.58 287.41 152.04 334.35C160.8 377.64 168.278 439.914 170.308 451.754C192.252 441.778 198.113 436.754 212.905 425.312C213.215 423.732 217.79 367.94 233.14 283.61C244.97 218.89 269.407 74.6848 275.347 44.5948L275.357 44.6048Z" fill="#FFA500"/>
<path d="M387.64 127.084C374.97 115.554 358.19 109.794 337.29 109.794C316.39 109.794 299.17 117.294 286.54 132.294C272.33 149.104 265.22 173.784 265.22 206.334C265.22 217.334 266.63 228.134 269.44 238.734C271.99 248.234 275.27 256.224 279.27 262.694C294.05 285.924 313.26 297.534 336.88 297.534C346.34 297.534 355.49 295.094 364.33 290.204C373.22 285.274 381.07 278.264 387.89 269.154C403.07 248.874 410.66 222.824 410.66 191.014C410.66 162.334 402.98 141.014 387.63 127.064M307.46 198.884C307.46 180.494 309.77 167.124 314.39 158.764C318.48 151.284 324.6 147.544 332.74 147.544C342.07 147.544 349.81 151.594 355.97 159.684C363.41 169.454 367.12 183.774 367.12 202.644C367.12 221.514 364.48 234.874 359.2 244.944C354.27 254.314 347.81 259.004 339.8 259.004C331.22 259.004 323.76 253.434 317.43 242.304C310.79 230.644 307.47 216.174 307.47 198.884H307.46Z" fill="#FFA500"/>
<path d="M428.89 75.36C429.2 78.66 429.59 85.57 430.08 96.08C430.61 106.99 430.92 113.08 431 114.36C431.35 118.23 431.66 129.85 431.92 149.2C432.1 165.08 432.18 179.29 432.18 191.83C432.18 199.62 432.4 207.95 432.84 216.84C433.41 227.53 434.16 235.23 435.08 239.94C440.32 251.51 449.16 257.3 461.61 257.3C465.53 257.3 473.82 255.54 486.49 252.02C497.75 248.85 505.63 246.34 510.12 244.5L511.37 263.97C519.77 263.66 526.5 263.66 531.56 263.97C538.82 264.41 546.74 265.58 555.32 267.47V60.05C548.46 62.56 540.56 64.82 531.63 66.85C524.28 68.52 517.24 69.84 510.51 70.81C510.99 74.64 511.3 80.95 511.43 89.75L511.76 110.21C512.29 121.38 512.6 138.63 512.68 161.95C512.72 174.49 512.7 189.97 512.61 208.41C509.53 210.87 505.44 212.96 500.34 214.68C495.41 216.31 490.93 217.12 486.88 217.12C482.44 217.12 479.42 215.98 477.84 213.69C476.17 211.31 475.33 206.65 475.33 199.7C474.76 127.33 474.47 85.75 474.47 74.97C467.91 75.63 460.74 76 452.96 76.09C444.47 76.22 436.44 75.98 428.87 75.36H428.89Z" fill="#FFA500"/>
<path d="M781.96 65.7174C777.12 66.5974 768.43 67.6274 755.89 68.8174L738.47 70.2674C739.26 88.5274 739.81 104.977 740.12 119.627C740.65 141.717 740.91 155.527 740.91 161.067C730.92 157.367 725.6 155.417 724.94 155.197C718.08 152.997 712.36 151.897 707.78 151.897C698.81 151.897 689.13 156.317 678.74 165.157C670.6 172.157 664.66 179.057 660.92 185.877C657.75 191.727 654.91 200.177 652.41 211.217C649.24 225.247 647.66 239.877 647.66 255.107C647.66 280.797 652.76 301.877 662.97 318.327C672.65 333.947 684.4 341.757 698.21 341.757C704.72 341.757 712.11 340.527 720.38 338.057C729.13 335.457 736.13 332.267 741.37 328.487L747.529 369.113C756.091 371.356 755.48 370.744 764.653 374.617C775.661 379.306 778.515 386.849 780.757 390.722C780.887 383.502 781.64 300.517 782.34 296.947L781.94 65.7074M739.26 198.757C740.27 205.487 740.65 220.187 740.38 242.837C740.25 255.247 740.01 272.727 739.65 295.297C736.57 298.597 732.94 301.237 728.76 303.217C724.62 305.157 720.66 306.117 716.88 306.117C708.52 306.117 702.14 299.697 697.74 286.847C693.65 275.017 691.6 259.047 691.6 238.937C691.6 220.107 693.38 207.107 696.95 199.937C700.07 193.597 705.46 190.437 713.12 190.437C716.99 190.437 721.61 191.297 726.98 193.007C732.22 194.727 736.31 196.637 739.25 198.747L739.26 198.757Z" fill="#FFA500"/>
<path d="M1106.88 160.322C1094.21 148.792 1077.43 143.032 1056.53 143.032C1035.63 143.032 1018.39 150.532 1005.72 165.532C991.511 182.382 984.401 207.062 984.401 239.572C984.401 250.572 985.831 261.372 988.691 271.972C991.241 281.472 994.521 289.462 998.521 295.932C1013.3 319.162 1032.51 330.772 1056.13 330.772C1065.59 330.772 1074.74 328.332 1083.58 323.442C1092.47 318.512 1100.32 311.502 1107.14 302.392C1122.32 282.112 1129.91 256.062 1129.91 224.252C1129.91 195.572 1122.23 174.252 1106.88 160.302M1051.97 180.782C1061.3 180.782 1069.04 184.832 1075.2 192.922C1082.64 202.692 1086.35 217.012 1086.35 235.882C1086.35 254.012 1083.71 268.112 1078.43 278.182C1073.5 287.552 1067.04 292.242 1059.03 292.242C1050.45 292.242 1042.99 286.672 1036.66 275.542C1030.02 263.882 1026.7 249.412 1026.7 232.122C1026.7 213.732 1029.01 200.362 1033.63 192.002C1037.72 184.522 1043.84 180.782 1051.98 180.782H1051.97Z" fill="#FFA500"/>
<path d="M1265.2 354.064V150.144C1258.34 152.654 1250.46 154.914 1241.57 156.944C1234.22 158.614 1227.18 159.934 1220.45 160.904C1220.93 164.734 1221.24 171.044 1221.37 179.844L1221.7 200.304C1222.23 211.474 1222.54 228.724 1222.62 252.044C1222.66 264.584 1222.64 280.064 1222.55 298.504C1219.47 300.964 1215.38 303.054 1210.28 304.774C1205.35 306.404 1200.86 307.214 1196.82 307.214C1192.38 307.214 1189.36 306.074 1187.78 303.784C1186.06 301.364 1185.21 296.704 1185.21 289.794C1184.68 217.424 1184.42 175.844 1184.42 165.064C1177.86 165.724 1170.67 166.094 1162.84 166.184C1154.39 166.314 1146.39 166.074 1138.82 165.454C1139.17 168.844 1139.57 175.744 1140.01 186.174C1140.54 197.484 1140.82 203.574 1140.87 204.454C1141.27 208.324 1141.57 219.944 1141.79 239.294C1142.01 255.004 1142.12 269.214 1142.12 281.924C1142.12 289.714 1142.34 298.044 1142.78 306.934C1143.35 317.624 1144.1 325.324 1145.02 330.034C1150.26 341.604 1159.1 347.394 1171.55 347.394C1175.47 347.394 1183.76 345.634 1196.43 342.114C1207.69 338.944 1215.57 336.434 1220.06 334.594L1220.73 349.014C1232.59 351.789 1234.62 351.878 1243.69 352.798C1251.35 353.588 1257.82 353.807 1265.2 354.064Z" fill="#FFA500"/>
<path d="M1002.96 10.0973C996.15 7.7073 987.73 4.3973 977.67 0.157298C972.8 27.2873 962.89 63.2373 947.92 107.987C942.2 95.3673 934.98 76.7773 926.29 52.2073C918.36 29.8473 912.84 13.0673 909.73 1.8373C894.05 8.8673 877.08 14.2273 858.82 17.9273C868.47 37.5373 879.98 61.6673 893.37 90.3373C909.19 124.317 920.17 148.887 926.29 164.027C925.66 191.657 925.07 212.257 924.53 225.817C923.58 249.797 921.94 253.928 921.94 253.928C930.68 252.978 938.68 252.667 945.94 252.977C951.35 253.207 958.18 253.927 966.43 255.137C966.7 249.097 966.81 253.007 969.02 215.327C970.82 184.137 971.72 165.047 971.72 158.067C976.77 144.457 985.04 123.067 996.53 93.9073C1008.38 63.7573 1018.66 38.1573 1027.36 17.1073C1018.8 15.0773 1010.66 12.7373 1002.95 10.0773L1002.96 10.0973Z" fill="#FFA500"/>
<path d="M46.9628 478.061L44.8432 521.512C314.725 548.353 272.957 317.958 490.65 322.975C490.728 307.434 488.786 281.491 488.786 281.491C262.546 280.346 282.389 506.585 46.9628 478.061Z" fill="#FFA500"/>
</svg>
