<?xml version="1.0" encoding="UTF-8"?>
<svg id="Layer_2" data-name="Layer 2" xmlns="http://www.w3.org/2000/svg" xmlns:xlink="http://www.w3.org/1999/xlink" viewBox="0 0 1318.47 609.23">
  <defs>
    <mask id="mask" x="858.83" y="0" width="168.55" height="280.77" maskUnits="userSpaceOnUse">
      <g id="Mask_Mask_1" data-name="Mask Mask 1">
        <g id="Mask_FlashAICB_Assets_0_Layer_1_Clip_Group_0_2_MASK_0_FILL" data-name="Mask FlashAICB Assets 0 Layer 1  Clip Group  0 2 MASK 0 FILL">
          <path d="M1027.37,0h-168.55v280.77h168.55V0Z" fill="#fff" stroke-width="0"/>
        </g>
      </g>
    </mask>
  </defs>
  <g id="Layer_1-2" data-name="Layer 1">
    <g id="symbol4_0_Layer2_0_FILL" data-name="symbol4 0 Layer2 0 FILL">
      <path d="M1031.18,429.23c-3.43-2.07-7.3-3.76-11.61-5.08-4.22-1.32-7.81-1.98-10.75-1.98-6.29,0-14.17,1.32-23.63,3.96-8.18,2.25-15.35,4.8-21.51,7.66-.34-.55-.6,1.15-.79,5.1-.16,3.34-.23,7.75-.23,13.22,0,5.06.06,9.35.18,12.87.13,3.73.27,5.07.45,4.05,8.71-5.28,17.27-7.92,25.67-7.92,3.61,0,6.43.88,8.45,2.64,1.89,1.63,2.95,3.93,3.16,6.92.53,4.93.97,13.79,1.32,26.6.22,9.15.33,16.04.33,20.65-.05.93-.33,13.27-.86,37.03-.48,20.55-.9,33.19-1.25,37.95,10.25,1.4,17.25,2.39,20.99,2.97,9.06,1.41,17.27,2.9,24.62,4.49-.35-8.75-.57-17.69-.66-26.79-.04-8.23.05-14.47.26-18.74.18-5.98.38-22.52.6-49.62.18-23.41.26-37.27.26-41.58,0-8.8-1.72-16.5-5.15-23.1-2.72-5.28-6-9.04-9.83-11.28Z" fill="orange" stroke-width="0"/>
    </g>
    <g id="symbol4_0_Layer2_1_FILL" data-name="symbol4 0 Layer2 1 FILL">
      <path d="M623.5,382.15c0-20.41-7.85-36.76-23.56-49.03-17.16-13.46-41.77-20.19-73.85-20.19h-15.44c-5.68.13-12.27.55-19.8,1.25l-.4,79.59c0,24.33-.29,63.7-.86,118.13,0,8.67-.18,21.43-.53,38.28-.31,16.89-.68,31.76-1.12,44.61,4.14,0,11.77-.68,22.9-2.05,14.03-1.72,22.7-2.71,26-2.97-.92-8.89-1.69-20.63-2.31-35.24-.4-9.55-.86-23.49-1.39-41.84,0-15.18-.29-24.57-.86-28.18l14.12-2.44c6.91,13.55,15.42,31.48,25.54,53.78,11.26,24.81,20.28,45.82,27.06,63.02,4.22-1.41,11.35-4.22,21.38-8.45,9.42-3.96,16.52-6.67,21.32-8.12-7.22-15-18.79-38.19-34.71-69.56-10.73-21.21-17.95-36.43-21.65-45.67,11.44-7.13,20.7-18.74,27.78-34.84,6.91-15.66,10.36-32.36,10.36-50.09M563.78,357.07c7.48,5.54,11.22,15.71,11.22,30.49,0,16.54-1.89,29.52-5.68,38.94-4.36,10.82-11.44,17.6-21.25,20.33-1.89.53-4.64,1.12-8.25,1.78-3.61.62-5.83.99-6.67,1.12-.18-3.43-.33-18.68-.46-45.73-.13-29.74-.26-47.65-.4-53.72,14.78,0,25.28,2.27,31.48,6.8Z" fill="orange" stroke-width="0"/>
    </g>
    <g id="symbol4_0_Layer2_2_FILL" data-name="symbol4 0 Layer2 2 FILL">
      <path d="M711.27,443.59c7.17.92,13,2.42,17.49,4.49,2.6,1.41,4.36,3.94,5.28,7.59.88,3.34,1.32,8.69,1.32,16.04-16.54,5.28-24.84,7.94-24.88,7.99-12.63,4.31-23.93,8.82-33.92,13.53-9.41,4.36-16.3,11.44-20.66,21.25-3.39,7.7-5.08,16.65-5.08,26.86,0,16.1,5.04,30.18,15.11,42.24,4.18,5.06,8.76,9.04,13.73,11.94,4.84,2.82,9.33,4.22,13.46,4.22,7.39,0,15.6-2.38,24.62-7.13,7.52-4,13.95-8.67,19.27-13.99.31,2.2.95,7.19,1.91,14.98,1.1,7.26,2.27,12.47,3.5,15.64,5.85-2.9,12.3-5.24,19.34-7,4.14-1.06,10.67-2.57,19.6-4.55-1.01-4.44-1.83-10.69-2.44-18.74-.57-7.74-.86-15.46-.86-23.16-.26-62.43-.4-94.48-.4-96.15,0-7.79-1.65-15.24-4.95-22.37-3.61-7.88-8.45-13.4-14.52-16.56-7.79-4-18.19-7.3-31.21-9.9-9.72-1.94-23.23-3.87-40.52-5.81.31,9.37-.37,21.8-2.05,37.29,10.91,0,19.86.44,26.86,1.32M697.28,523.11c3.21-4.18,7.06-7.24,11.55-9.17,1.85-.92,6.56-2.71,14.12-5.35,7.13-2.46,11.42-4.14,12.87-5.02.18,2.82.07,10.05-.33,21.71-.35,10.91-.66,17.62-.92,20.13-2.77,3.17-6.49,6.34-11.15,9.5-6.51,4.44-12.19,6.67-17.03,6.67s-8.25-2.24-10.62-6.73c-2.33-4.31-3.5-10.49-3.5-18.54,0-4.4,1.67-8.8,5.02-13.2Z" fill="orange" stroke-width="0"/>
    </g>
    <g id="symbol4_0_Layer2_3_FILL" data-name="symbol4 0 Layer2 3 FILL">
      <path d="M864.57,386.17c.62-12.23.92-20.61.92-25.14-7.44,2.82-16.72,5.9-27.85,9.24-8.14,2.38-13.9,3.98-17.29,4.82-.31,4.88-.53,10.8-.66,17.75-.13,6.6-.33,11.88-.59,15.84,0,1.85-.55,3.92-1.65,6.2-3.34.62-10.54,1.45-21.58,2.51,0,12.45.55,23.23,1.65,32.34,3.04-.57,6.51-.92,10.43-1.06,3.3-.09,6.05-.02,8.25.2-.13,3.65.02,9.66.46,18.02.53,9.46.79,16.3.79,20.52v59.26c0,13.68,2.49,24.73,7.46,33.13,6.51,11,18.52,20.68,36.03,29.04,2.95-4.36,8.32-10.62,16.1-18.81,4.05-4.22,8.49-8.73,13.33-13.53-7.39-2.86-14.39-7.37-20.99-13.53-6.51-6.07-9.88-11.09-10.1-15.05-.57-11.83-.77-26.66-.59-44.48.18-15.49.51-26.49.99-33,.18-1.41.4-4.93.66-10.56.31-6.25.51-10.05.59-11.42,2.99-.35,7.3-.62,12.93-.79,7.88-.26,14.76-.13,20.66.4-.7-6.47-.97-13.92-.79-22.37.13-6.38.4-10.95.79-13.73-3.26.84-8.25,1.5-14.98,1.98-9.85.75-15.38,1.19-16.56,1.32.7-12.63,1.23-22.33,1.58-29.1Z" fill="orange" stroke-width="0"/>
    </g>
    <g id="symbol4_0_Layer2_4_FILL" data-name="symbol4 0 Layer2 4 FILL">
      <path d="M1108.35,514.79c16.5-.75,27.87-1.28,34.12-1.58,20.28-1.06,37.79-2.2,52.53-3.43-1.54-30.75-6.89-54.84-16.04-72.26-10.03-18.96-23.89-28.44-41.58-28.44-22.26,0-39.16,6.09-50.68,18.28-14.3,15.13-21.45,40.41-21.45,75.83,0,16.01,1.76,30.03,5.28,42.04,3.96,13.51,10.07,24.09,18.35,31.74,6.12,5.9,14.08,10.78,23.89,14.65,9.59,3.74,18.61,5.61,27.06,5.61,7.3,0,17.69-2.4,31.15-7.19,15.18-5.37,24.84-10.98,28.97-16.83-6.12-9.33-10.4-18.02-12.87-26.07-7.92,3.96-16.45,7.04-25.61,9.24-7.61,1.85-13.99,2.77-19.14,2.77-4.4,0-9.19-1.39-14.39-4.16-4.62-2.46-7.96-5.08-10.03-7.85-5.98-7.74-9.17-18.52-9.57-32.34M1131.18,443.06c6.38,0,11.35,3.63,14.91,10.89,2.95,6.03,5.02,14.83,6.2,26.4-10.91,1.1-19.2,1.8-24.88,2.11-1.89.35-5.17.51-9.83.46-4.14-.04-7.22-.2-9.24-.46-.79-11.61,1.3-21.25,6.27-28.9,4.53-7,10.05-10.49,16.56-10.49Z" fill="orange" stroke-width="0"/>
    </g>
    <g id="symbol4_0_Layer2_5_FILL" data-name="symbol4 0 Layer2 5 FILL">
      <path d="M1318.47,442.27c-3.26-8.36-5.61-14.83-7.06-19.4-1.85-5.98-3.37-12.23-4.55-18.74-9.5,1.54-18.26,4.31-26.27,8.32-6.95,3.43-12.69,7.44-17.22,12.01v-23.23c-4.84-.22-10.27-.59-16.3-1.12-12.01-1.14-20.94-2.57-26.79-4.29.53,10.51.79,32.2.79,65.07v52.66c0,6.25-.37,17.93-1.12,35.04-.92,20.77-1.94,35.75-3.04,44.94,8.97.22,16.85.68,23.63,1.39,6.91.75,14.36,1.94,22.37,3.56-1.1-14.78-1.65-36.58-1.65-65.4,0-22.26.29-43.56.86-63.88,4.62-7.83,11.02-13.92,19.2-18.28,9.68-5.19,22.06-8.07,37.15-8.65Z" fill="orange" stroke-width="0"/>
    </g>
    <g id="symbol4_0_Layer2_6_FILL" data-name="symbol4 0 Layer2 6 FILL">
      <path d="M259.81,20.57c-8.36-.79-15.75-1.91-22.17-3.37-6.12-1.41-13.51-3.59-22.17-6.53-2.82,21.69-7.06,51.98-12.74,90.87-5.9,40.34-10.76,72.06-14.58,95.16-2.33-12.45-8.84-44.39-19.53-95.82-9.5-45.89-15.16-74.44-16.96-85.66-6.64.79-13.04,1.17-19.2,1.12-5.24-.04-11.13-.42-17.69-1.12-1.23,8.4-7.11,37.2-17.62,86.38-12.01,56.09-19.12,89.88-21.32,101.36-3.21-18.35-8.4-53.39-15.57-105.13-7.7-55.7-12.05-86.69-13.07-92.98-8.71,4.18-17.14,7.61-25.28,10.29-6.16,1.98-13.46,3.94-21.91,5.87,7.57,39.42,23.58,128.25,48.04,266.48,12.54,0,27.32,1.78,44.35,5.35,2.11-10.95,8.43-39.24,18.94-84.87,10.29-44.57,17.25-76.51,20.85-95.82,3.78,20.63,10.4,54.42,19.86,101.36,8.76,43.29,14.14,70.85,16.17,82.69,13.29-.84,27.1-2.35,41.44-4.55.31-1.58,8.14-44.55,23.49-128.88,11.83-64.72,20.72-112.12,26.66-142.21Z" fill="tomato" stroke-width="0"/>
    </g>
    <g id="symbol4_0_Layer2_7_FILL" data-name="symbol4 0 Layer2 7 FILL">
      <path d="M387.64,115.8c-12.67-11.53-29.45-17.29-50.35-17.29s-38.12,7.5-50.75,22.5c-14.21,16.81-21.32,41.49-21.32,74.04,0,11,1.41,21.8,4.22,32.4,2.55,9.5,5.83,17.49,9.83,23.96,14.78,23.23,33.99,34.84,57.61,34.84,9.46,0,18.61-2.44,27.45-7.33,8.89-4.93,16.74-11.94,23.56-21.05,15.18-20.28,22.77-46.33,22.77-78.14,0-28.68-7.68-50-23.03-63.95M307.46,187.6c0-18.39,2.31-31.76,6.93-40.12,4.09-7.48,10.21-11.22,18.35-11.22,9.33,0,17.07,4.05,23.23,12.14,7.44,9.77,11.15,24.09,11.15,42.96s-2.64,32.23-7.92,42.3c-4.93,9.37-11.39,14.06-19.4,14.06-8.58,0-16.04-5.57-22.37-16.7-6.64-11.66-9.96-26.13-9.96-43.42Z" fill="tomato" stroke-width="0"/>
    </g>
    <g id="symbol4_0_Layer2_8_FILL" data-name="symbol4 0 Layer2 8 FILL">
      <path d="M428.89,106.36c.31,3.3.7,10.21,1.19,20.72.53,10.91.84,17,.92,18.28.35,3.87.66,15.49.92,34.84.18,15.88.26,30.09.26,42.63,0,7.79.22,16.12.66,25.01.57,10.69,1.32,18.39,2.24,23.1,5.24,11.57,14.08,17.36,26.53,17.36,3.92,0,12.21-1.76,24.88-5.28,11.26-3.17,19.14-5.68,23.63-7.52l1.25,19.47c8.4-.31,15.13-.31,20.19,0,7.26.44,15.18,1.61,23.76,3.5V91.05c-6.86,2.51-14.76,4.77-23.69,6.8-7.35,1.67-14.39,2.99-21.12,3.96.48,3.83.79,10.14.92,18.94l.33,20.46c.53,11.17.84,28.42.92,51.74.04,12.54.02,28.02-.07,46.46-3.08,2.46-7.17,4.55-12.27,6.27-4.93,1.63-9.41,2.44-13.46,2.44-4.44,0-7.46-1.14-9.04-3.43-1.67-2.38-2.51-7.04-2.51-13.99-.57-72.37-.86-113.95-.86-124.73-6.56.66-13.73,1.03-21.51,1.12-8.49.13-16.52-.11-24.09-.73Z" fill="tomato" stroke-width="0"/>
    </g>
    <g id="symbol4_0_Layer2_9_FILL" data-name="symbol4 0 Layer2 9 FILL">
      <path d="M784.06,12.72c-4.84.88-13.53,1.91-26.07,3.1l-17.42,1.45c.79,18.26,1.34,34.71,1.65,49.36.53,22.09.79,35.9.79,41.44-9.99-3.7-15.31-5.65-15.97-5.87-6.86-2.2-12.58-3.3-17.16-3.3-8.97,0-18.65,4.42-29.04,13.26-8.14,7-14.08,13.9-17.82,20.72-3.17,5.85-6.01,14.3-8.51,25.34-3.17,14.03-4.75,28.66-4.75,43.89,0,25.69,5.1,46.77,15.31,63.22,9.68,15.62,21.43,23.43,35.24,23.43,6.51,0,13.9-1.23,22.17-3.7,8.75-2.6,15.75-5.79,20.99-9.57l8.25,17.36c5.85-2.46,10.82-4.25,14.91-5.35,4.97-1.36,10.78-2.33,17.42-2.9-.75-8.05-1.03-16.21-.86-24.48.13-7.22.55-12.6,1.25-16.17l-.4-231.24M741.36,145.76c1.01,6.73,1.39,21.43,1.12,44.08-.13,12.41-.37,29.89-.73,52.46-3.08,3.3-6.71,5.94-10.89,7.92-4.14,1.94-8.1,2.9-11.88,2.9-8.36,0-14.74-6.42-19.14-19.27-4.09-11.83-6.14-27.8-6.14-47.91,0-18.83,1.78-31.83,5.35-39,3.12-6.34,8.51-9.5,16.17-9.5,3.87,0,8.49.86,13.86,2.57,5.24,1.72,9.33,3.63,12.27,5.74Z" fill="tomato" stroke-width="0"/>
    </g>
    <g id="symbol4_0_Layer2_10_FILL" data-name="symbol4 0 Layer2 10 FILL">
      <path d="M1132.37,115.8c-12.67-11.53-29.45-17.29-50.35-17.29s-38.14,7.5-50.81,22.5c-14.21,16.85-21.32,41.53-21.32,74.04,0,11,1.43,21.8,4.29,32.4,2.55,9.5,5.83,17.49,9.83,23.96,14.78,23.23,33.99,34.84,57.61,34.84,9.46,0,18.61-2.44,27.45-7.33,8.89-4.93,16.74-11.94,23.56-21.05,15.18-20.28,22.77-46.33,22.77-78.14,0-28.68-7.68-50-23.03-63.95M1077.46,136.26c9.33,0,17.07,4.05,23.23,12.14,7.44,9.77,11.15,24.09,11.15,42.96,0,18.13-2.64,32.23-7.92,42.3-4.93,9.37-11.39,14.06-19.4,14.06-8.58,0-16.04-5.57-22.37-16.7-6.64-11.66-9.96-26.13-9.96-43.42,0-18.39,2.31-31.76,6.93-40.12,4.09-7.48,10.21-11.22,18.35-11.22Z" fill="tomato" stroke-width="0"/>
    </g>
    <g id="symbol4_0_Layer2_11_FILL" data-name="symbol4 0 Layer2 11 FILL">
      <path d="M1299.99,294.97V91.05c-6.86,2.51-14.74,4.77-23.63,6.8-7.35,1.67-14.39,2.99-21.12,3.96.48,3.83.79,10.14.92,18.94l.33,20.46c.53,11.17.84,28.42.92,51.74.04,12.54.02,28.02-.07,46.46-3.08,2.46-7.17,4.55-12.27,6.27-4.93,1.63-9.42,2.44-13.46,2.44-4.44,0-7.46-1.14-9.04-3.43-1.72-2.42-2.57-7.08-2.57-13.99-.53-72.37-.79-113.95-.79-124.73-6.56.66-13.75,1.03-21.58,1.12-8.45.13-16.45-.11-24.02-.73.35,3.39.75,10.29,1.19,20.72.53,11.31.81,17.4.86,18.28.4,3.87.7,15.49.92,34.84.22,15.71.33,29.92.33,42.63,0,7.79.22,16.12.66,25.01.57,10.69,1.32,18.39,2.24,23.1,5.24,11.57,14.08,17.36,26.53,17.36,3.92,0,12.21-1.76,24.88-5.28,11.26-3.17,19.14-5.68,23.63-7.52l1.25,15.31c5.9-.18,13.37.2,22.44,1.12,7.66.79,14.8,1.8,21.45,3.04Z" fill="tomato" stroke-width="0"/>
    </g>
    <g mask="url(#mask)">
      <g id="FlashAICB_Assets_0_Layer_1_Clip_Group_0_Layer2_0_FILL" data-name="FlashAICB Assets 0 Layer 1  Clip Group  0 Layer2 0 FILL">
        <path d="M1002.96,9.94c-6.81-2.39-15.23-5.7-25.29-9.94-4.87,27.13-14.78,63.08-29.75,107.83-5.72-12.62-12.94-31.21-21.63-55.78-7.93-22.36-13.45-39.14-16.56-50.37-15.68,7.03-32.65,12.39-50.91,16.09,9.65,19.61,21.16,43.74,34.55,72.41,15.82,33.98,26.8,58.55,32.92,73.69-.63,27.63-1.22,48.23-1.76,61.79-.95,23.98-2.19,41.94-3.72,53.88,8.74-.95,16.74-1.26,24-.95,5.41.23,12.24.95,20.49,2.16.27-6.04,1.51-27.9,3.72-65.58,1.8-31.19,2.7-50.28,2.7-57.26,5.05-13.61,13.32-35,24.81-64.16,11.85-30.15,22.13-55.75,30.83-76.8-8.56-2.03-16.7-4.37-24.41-7.03Z" fill="tomato" stroke-width="0"/>
      </g>
    </g>
  </g>
</svg>