<svg width="1319" height="610" viewBox="0 0 1319 610" fill="none" xmlns="http://www.w3.org/2000/svg">
<path d="M1031.18 429.23C1027.75 427.16 1023.88 425.47 1019.57 424.15C1015.35 422.83 1011.76 422.17 1008.82 422.17C1002.53 422.17 994.65 423.49 985.19 426.13C977.01 428.38 969.84 430.93 963.68 433.79C963.34 433.24 963.08 434.94 962.89 438.89C962.73 442.23 962.66 446.64 962.66 452.11C962.66 457.17 962.72 461.46 962.84 464.98C962.97 468.71 963.11 470.05 963.29 469.03C972 463.75 980.56 461.11 988.96 461.11C992.57 461.11 995.39 461.99 997.41 463.75C999.3 465.38 1000.36 467.68 1000.57 470.67C1001.1 475.6 1001.54 484.46 1001.89 497.27C1002.11 506.42 1002.22 513.31 1002.22 517.92C1002.17 518.85 1001.89 531.19 1001.36 554.95C1000.88 575.5 1000.46 588.14 1000.11 592.9C1010.36 594.3 1017.36 595.29 1021.1 595.87C1030.16 597.28 1038.37 598.77 1045.72 600.36C1045.37 591.61 1045.15 582.67 1045.06 573.57C1045.02 565.34 1045.11 559.1 1045.32 554.83C1045.5 548.85 1045.7 532.31 1045.92 505.21C1046.1 481.8 1046.18 467.94 1046.18 463.63C1046.18 454.83 1044.46 447.13 1041.03 440.53C1038.31 435.25 1035.03 431.49 1031.2 429.25L1031.18 429.23Z" fill="#FFA500"/>
<path d="M623.5 382.15C623.5 361.74 615.65 345.39 599.94 333.12C582.78 319.66 558.17 312.93 526.09 312.93H510.65C504.97 313.06 498.38 313.48 490.85 314.18L490.45 393.77C490.45 418.1 490.16 457.47 489.59 511.9C489.59 520.57 489.41 533.33 489.06 550.18C488.75 567.07 488.38 581.94 487.94 594.79C492.08 594.79 499.71 594.11 510.84 592.74C524.87 591.02 533.54 590.03 536.84 589.77C535.92 580.88 535.15 569.14 534.53 554.53C534.13 544.98 533.67 531.04 533.14 512.69C533.14 497.51 532.85 488.12 532.28 484.51L546.4 482.07C553.31 495.62 561.82 513.55 571.94 535.85C583.2 560.66 592.22 581.67 599 598.87C603.22 597.46 610.35 594.65 620.38 590.42C629.8 586.46 636.9 583.75 641.7 582.3C634.48 567.3 622.91 544.11 606.99 512.74C596.26 491.53 589.04 476.31 585.34 467.07C596.78 459.94 606.04 448.33 613.12 432.23C620.03 416.57 623.48 399.87 623.48 382.14M563.78 357.07C571.26 362.61 575 372.78 575 387.56C575 404.1 573.11 417.08 569.32 426.5C564.96 437.32 557.88 444.1 548.07 446.83C546.18 447.36 543.43 447.95 539.82 448.61C536.21 449.23 533.99 449.6 533.15 449.73C532.97 446.3 532.82 431.05 532.69 404C532.56 374.26 532.43 356.35 532.29 350.28C547.07 350.28 557.57 352.55 563.77 357.08L563.78 357.07Z" fill="#FFA500"/>
<path d="M711.27 443.59C718.44 444.51 724.27 446.01 728.76 448.08C731.36 449.49 733.12 452.02 734.04 455.67C734.92 459.01 735.36 464.36 735.36 471.71C718.82 476.99 710.52 479.65 710.48 479.7C697.85 484.01 686.55 488.52 676.56 493.23C667.15 497.59 660.26 504.67 655.9 514.48C652.51 522.18 650.82 531.13 650.82 541.34C650.82 557.44 655.86 571.52 665.93 583.58C670.11 588.64 674.69 592.62 679.66 595.52C684.5 598.34 688.99 599.74 693.12 599.74C700.51 599.74 708.72 597.36 717.74 592.61C725.26 588.61 731.69 583.94 737.01 578.62C737.32 580.82 737.96 585.81 738.92 593.6C740.02 600.86 741.19 606.07 742.42 609.24C748.27 606.34 754.72 604 761.76 602.24C765.9 601.18 772.43 599.67 781.36 597.69C780.35 593.25 779.53 587 778.92 578.95C778.35 571.21 778.06 563.49 778.06 555.79C777.8 493.36 777.66 461.31 777.66 459.64C777.66 451.85 776.01 444.4 772.71 437.27C769.1 429.39 764.26 423.87 758.19 420.71C750.4 416.71 740 413.41 726.98 410.81C717.26 408.87 703.75 406.94 686.46 405C686.77 414.37 686.09 426.8 684.41 442.29C695.32 442.29 704.27 442.73 711.27 443.61M697.28 523.11C700.49 518.93 704.34 515.87 708.83 513.94C710.68 513.02 715.39 511.23 722.95 508.59C730.08 506.13 734.37 504.45 735.82 503.57C736 506.39 735.89 513.62 735.49 525.28C735.14 536.19 734.83 542.9 734.57 545.41C731.8 548.58 728.08 551.75 723.42 554.91C716.91 559.35 711.23 561.58 706.39 561.58C701.55 561.58 698.14 559.34 695.77 554.85C693.44 550.54 692.27 544.36 692.27 536.31C692.27 531.91 693.94 527.51 697.29 523.11H697.28Z" fill="#FFA500"/>
<path d="M864.57 386.17C865.19 373.94 865.49 365.56 865.49 361.03C858.05 363.85 848.77 366.93 837.64 370.27C829.5 372.65 823.74 374.25 820.35 375.09C820.04 379.97 819.82 385.89 819.69 392.84C819.56 399.44 819.36 404.72 819.1 408.68C819.1 410.53 818.55 412.6 817.45 414.88C814.11 415.5 806.91 416.33 795.87 417.39C795.87 429.84 796.42 440.62 797.52 449.73C800.56 449.16 804.03 448.81 807.95 448.67C811.25 448.58 814 448.65 816.2 448.87C816.07 452.52 816.22 458.53 816.66 466.89C817.19 476.35 817.45 483.19 817.45 487.41V546.67C817.45 560.35 819.94 571.4 824.91 579.8C831.42 590.8 843.43 600.48 860.94 608.84C863.89 604.48 869.26 598.22 877.04 590.03C881.09 585.81 885.53 581.3 890.37 576.5C882.98 573.64 875.98 569.13 869.38 562.97C862.87 556.9 859.5 551.88 859.28 547.92C858.71 536.09 858.51 521.26 858.69 503.44C858.87 487.95 859.2 476.95 859.68 470.44C859.86 469.03 860.08 465.51 860.34 459.88C860.65 453.63 860.85 449.83 860.93 448.46C863.92 448.11 868.23 447.84 873.86 447.67C881.74 447.41 888.62 447.54 894.52 448.07C893.82 441.6 893.55 434.15 893.73 425.7C893.86 419.32 894.13 414.75 894.52 411.97C891.26 412.81 886.27 413.47 879.54 413.95C869.69 414.7 864.16 415.14 862.98 415.27C863.68 402.64 864.21 392.94 864.56 386.17H864.57Z" fill="#FFA500"/>
<path d="M1108.35 514.79C1124.85 514.04 1136.22 513.51 1142.47 513.21C1162.75 512.15 1180.26 511.01 1195 509.78C1193.46 479.03 1188.11 454.94 1178.96 437.52C1168.93 418.56 1155.07 409.08 1137.38 409.08C1115.12 409.08 1098.22 415.17 1086.7 427.36C1072.4 442.49 1065.25 467.77 1065.25 503.19C1065.25 519.2 1067.01 533.22 1070.53 545.23C1074.49 558.74 1080.6 569.32 1088.88 576.97C1095 582.87 1102.96 587.75 1112.77 591.62C1122.36 595.36 1131.38 597.23 1139.83 597.23C1147.13 597.23 1157.52 594.83 1170.98 590.04C1186.16 584.67 1195.82 579.06 1199.95 573.21C1193.83 563.88 1189.55 555.19 1187.08 547.14C1179.16 551.1 1170.63 554.18 1161.47 556.38C1153.86 558.23 1147.48 559.15 1142.33 559.15C1137.93 559.15 1133.14 557.76 1127.94 554.99C1123.32 552.53 1119.98 549.91 1117.91 547.14C1111.93 539.4 1108.74 528.62 1108.34 514.8M1131.18 443.06C1137.56 443.06 1142.53 446.69 1146.09 453.95C1149.04 459.98 1151.11 468.78 1152.29 480.35C1141.38 481.45 1133.09 482.15 1127.41 482.46C1125.52 482.81 1122.24 482.97 1117.58 482.92C1113.44 482.88 1110.36 482.72 1108.34 482.46C1107.55 470.85 1109.64 461.21 1114.61 453.56C1119.14 446.56 1124.66 443.07 1131.17 443.07L1131.18 443.06Z" fill="#FFA500"/>
<path d="M1318.47 442.27C1315.21 433.91 1312.86 427.44 1311.41 422.87C1309.56 416.89 1308.04 410.64 1306.86 404.13C1297.36 405.67 1288.6 408.44 1280.59 412.45C1273.64 415.88 1267.9 419.89 1263.37 424.46V401.23C1258.53 401.01 1253.1 400.64 1247.07 400.11C1235.06 398.97 1226.13 397.54 1220.28 395.82C1220.81 406.33 1221.07 428.02 1221.07 460.89V513.55C1221.07 519.8 1220.7 531.48 1219.95 548.59C1219.03 569.36 1218.01 584.34 1216.91 593.53C1225.88 593.75 1233.76 594.21 1240.54 594.92C1247.45 595.67 1254.9 596.86 1262.91 598.48C1261.81 583.7 1261.26 561.9 1261.26 533.08C1261.26 510.82 1261.55 489.52 1262.12 469.2C1266.74 461.37 1273.14 455.28 1281.32 450.92C1291 445.73 1303.38 442.85 1318.47 442.27Z" fill="#FFA500"/>
<path d="M259.81 20.57C251.45 19.78 244.06 18.66 237.64 17.2C231.52 15.79 224.13 13.61 215.47 10.67C212.65 32.36 208.41 62.65 202.73 101.54C196.83 141.88 191.97 173.6 188.15 196.7C185.82 184.25 179.31 152.31 168.62 100.88C159.12 54.99 153.46 26.44 151.66 15.22C145.02 16.01 138.62 16.39 132.46 16.34C127.22 16.3 121.33 15.92 114.77 15.22C113.54 23.62 107.66 52.42 97.15 101.6C85.14 157.69 78.03 191.48 75.83 202.96C72.62 184.61 67.43 149.57 60.26 97.83C52.56 42.13 48.21 11.14 47.19 4.85C38.48 9.03 30.05 12.46 21.91 15.14C15.75 17.12 8.45 19.08 0 21.01C7.57 60.43 23.58 149.26 48.04 287.49C60.58 287.49 75.36 289.27 92.39 292.84C94.5 281.89 100.82 253.6 111.33 207.97C121.62 163.4 128.58 131.46 132.18 112.15C135.96 132.78 142.58 166.57 152.04 213.51C160.8 256.8 166.18 284.36 168.21 296.2C181.5 295.36 195.31 293.85 209.65 291.65C209.96 290.07 217.79 247.1 233.14 162.77C244.97 98.05 253.86 50.65 259.8 20.56L259.81 20.57Z" fill="#FF6347"/>
<path d="M387.64 115.8C374.97 104.27 358.19 98.51 337.29 98.51C316.39 98.51 299.17 106.01 286.54 121.01C272.33 137.82 265.22 162.5 265.22 195.05C265.22 206.05 266.63 216.85 269.44 227.45C271.99 236.95 275.27 244.94 279.27 251.41C294.05 274.64 313.26 286.25 336.88 286.25C346.34 286.25 355.49 283.81 364.33 278.92C373.22 273.99 381.07 266.98 387.89 257.87C403.07 237.59 410.66 211.54 410.66 179.73C410.66 151.05 402.98 129.73 387.63 115.78M307.46 187.6C307.46 169.21 309.77 155.84 314.39 147.48C318.48 140 324.6 136.26 332.74 136.26C342.07 136.26 349.81 140.31 355.97 148.4C363.41 158.17 367.12 172.49 367.12 191.36C367.12 210.23 364.48 223.59 359.2 233.66C354.27 243.03 347.81 247.72 339.8 247.72C331.22 247.72 323.76 242.15 317.43 231.02C310.79 219.36 307.47 204.89 307.47 187.6H307.46Z" fill="#FF6347"/>
<path d="M428.89 106.36C429.2 109.66 429.59 116.57 430.08 127.08C430.61 137.99 430.92 144.08 431 145.36C431.35 149.23 431.66 160.85 431.92 180.2C432.1 196.08 432.18 210.29 432.18 222.83C432.18 230.62 432.4 238.95 432.84 247.84C433.41 258.53 434.16 266.23 435.08 270.94C440.32 282.51 449.16 288.3 461.61 288.3C465.53 288.3 473.82 286.54 486.49 283.02C497.75 279.85 505.63 277.34 510.12 275.5L511.37 294.97C519.77 294.66 526.5 294.66 531.56 294.97C538.82 295.41 546.74 296.58 555.32 298.47V91.05C548.46 93.56 540.56 95.82 531.63 97.85C524.28 99.52 517.24 100.84 510.51 101.81C510.99 105.64 511.3 111.95 511.43 120.75L511.76 141.21C512.29 152.38 512.6 169.63 512.68 192.95C512.72 205.49 512.7 220.97 512.61 239.41C509.53 241.87 505.44 243.96 500.34 245.68C495.41 247.31 490.93 248.12 486.88 248.12C482.44 248.12 479.42 246.98 477.84 244.69C476.17 242.31 475.33 237.65 475.33 230.7C474.76 158.33 474.47 116.75 474.47 105.97C467.91 106.63 460.74 107 452.96 107.09C444.47 107.22 436.44 106.98 428.87 106.36H428.89Z" fill="#FF6347"/>
<path d="M784.06 12.72C779.22 13.6 770.53 14.63 757.99 15.82L740.57 17.27C741.36 35.53 741.91 51.98 742.22 66.63C742.75 88.72 743.01 102.53 743.01 108.07C733.02 104.37 727.7 102.42 727.04 102.2C720.18 100 714.46 98.9 709.88 98.9C700.91 98.9 691.23 103.32 680.84 112.16C672.7 119.16 666.76 126.06 663.02 132.88C659.85 138.73 657.01 147.18 654.51 158.22C651.34 172.25 649.76 186.88 649.76 202.11C649.76 227.8 654.86 248.88 665.07 265.33C674.75 280.95 686.5 288.76 700.31 288.76C706.82 288.76 714.21 287.53 722.48 285.06C731.23 282.46 738.23 279.27 743.47 275.49L751.72 292.85C757.57 290.39 762.54 288.6 766.63 287.5C771.6 286.14 777.41 285.17 784.05 284.6C783.3 276.55 783.02 268.39 783.19 260.12C783.32 252.9 783.74 247.52 784.44 243.95L784.04 12.71M741.36 145.76C742.37 152.49 742.75 167.19 742.48 189.84C742.35 202.25 742.11 219.73 741.75 242.3C738.67 245.6 735.04 248.24 730.86 250.22C726.72 252.16 722.76 253.12 718.98 253.12C710.62 253.12 704.24 246.7 699.84 233.85C695.75 222.02 693.7 206.05 693.7 185.94C693.7 167.11 695.48 154.11 699.05 146.94C702.17 140.6 707.56 137.44 715.22 137.44C719.09 137.44 723.71 138.3 729.08 140.01C734.32 141.73 738.41 143.64 741.35 145.75L741.36 145.76Z" fill="#FF6347"/>
<path d="M1132.37 115.8C1119.7 104.27 1102.92 98.51 1082.02 98.51C1061.12 98.51 1043.88 106.01 1031.21 121.01C1017 137.86 1009.89 162.54 1009.89 195.05C1009.89 206.05 1011.32 216.85 1014.18 227.45C1016.73 236.95 1020.01 244.94 1024.01 251.41C1038.79 274.64 1058 286.25 1081.62 286.25C1091.08 286.25 1100.23 283.81 1109.07 278.92C1117.96 273.99 1125.81 266.98 1132.63 257.87C1147.81 237.59 1155.4 211.54 1155.4 179.73C1155.4 151.05 1147.72 129.73 1132.37 115.78M1077.46 136.26C1086.79 136.26 1094.53 140.31 1100.69 148.4C1108.13 158.17 1111.84 172.49 1111.84 191.36C1111.84 209.49 1109.2 223.59 1103.92 233.66C1098.99 243.03 1092.53 247.72 1084.52 247.72C1075.94 247.72 1068.48 242.15 1062.15 231.02C1055.51 219.36 1052.19 204.89 1052.19 187.6C1052.19 169.21 1054.5 155.84 1059.12 147.48C1063.21 140 1069.33 136.26 1077.47 136.26H1077.46Z" fill="#FF6347"/>
<path d="M1299.99 294.97V91.05C1293.13 93.56 1285.25 95.82 1276.36 97.85C1269.01 99.52 1261.97 100.84 1255.24 101.81C1255.72 105.64 1256.03 111.95 1256.16 120.75L1256.49 141.21C1257.02 152.38 1257.33 169.63 1257.41 192.95C1257.45 205.49 1257.43 220.97 1257.34 239.41C1254.26 241.87 1250.17 243.96 1245.07 245.68C1240.14 247.31 1235.65 248.12 1231.61 248.12C1227.17 248.12 1224.15 246.98 1222.57 244.69C1220.85 242.27 1220 237.61 1220 230.7C1219.47 158.33 1219.21 116.75 1219.21 105.97C1212.65 106.63 1205.46 107 1197.63 107.09C1189.18 107.22 1181.18 106.98 1173.61 106.36C1173.96 109.75 1174.36 116.65 1174.8 127.08C1175.33 138.39 1175.61 144.48 1175.66 145.36C1176.06 149.23 1176.36 160.85 1176.58 180.2C1176.8 195.91 1176.91 210.12 1176.91 222.83C1176.91 230.62 1177.13 238.95 1177.57 247.84C1178.14 258.53 1178.89 266.23 1179.81 270.94C1185.05 282.51 1193.89 288.3 1206.34 288.3C1210.26 288.3 1218.55 286.54 1231.22 283.02C1242.48 279.85 1250.36 277.34 1254.85 275.5L1256.1 290.81C1262 290.63 1269.47 291.01 1278.54 291.93C1286.2 292.72 1293.34 293.73 1299.99 294.97Z" fill="#FF6347"/>
<path d="M1002.96 9.94C996.15 7.55 987.73 4.24 977.67 0C972.8 27.13 962.89 63.08 947.92 107.83C942.2 95.21 934.98 76.62 926.29 52.05C918.36 29.69 912.84 12.91 909.73 1.68C894.05 8.71 877.08 14.07 858.82 17.77C868.47 37.38 879.98 61.51 893.37 90.18C909.19 124.16 920.17 148.73 926.29 163.87C925.66 191.5 925.07 212.1 924.53 225.66C923.58 249.64 922.34 267.6 920.81 279.54C929.55 278.59 937.55 278.28 944.81 278.59C950.22 278.82 957.05 279.54 965.3 280.75C965.57 274.71 966.81 252.85 969.02 215.17C970.82 183.98 971.72 164.89 971.72 157.91C976.77 144.3 985.04 122.91 996.53 93.75C1008.38 63.6 1018.66 38 1027.36 16.95C1018.8 14.92 1010.66 12.58 1002.95 9.92L1002.96 9.94Z" fill="#FF6347"/>
</svg>
