<?xml version="1.0" encoding="UTF-8"?>
<svg id="Layer_2" data-name="Layer 2" xmlns="http://www.w3.org/2000/svg" viewBox="0 0 270.56 228.24">
  <g id="Layer_1-2" data-name="Layer 1">
    <g>
      <path d="M75.72,189.43C21.71,189.43,1.77,171.52,1.77,123.53s19.94-63.83,73.95-63.83,73.7,18.37,73.7,63.83c0,47.76-19.94,65.9-73.7,65.9ZM75.72,100.34c-9.34,0-11.86,4.36-11.86,22.96,0,19.52,2.52,25.26,11.86,25.26s11.61-5.74,11.61-25.26-2.52-22.96-11.61-22.96Z" fill="#cad2c5" stroke-width="0"/>
      <path d="M267.79,117.79c-34.83,0-40.13,2.53-40.13,11.48v1.84c0,6.43,4.04,9.18,26.5,9.18v46.84h-97.42v-46.84c7.57,0,9.09-4.13,9.09-13.78v-4.13c0-10.56-1.51-13.78-9.09-13.78v-46.61h65.88v62.23h2.78c2.78-55.34,11.61-64.29,42.4-64.29v57.86Z" fill="#cad2c5" stroke-width="0"/>
    </g>
  </g>
</svg>