<?xml version="1.0" encoding="UTF-8"?>
<svg id="Layer_2" data-name="Layer 2" xmlns="http://www.w3.org/2000/svg" viewBox="0 0 998.98 458.24">
  <g id="Layer_1-2" data-name="Layer 1">
    <g>
      <path d="M453.89,450.39c-10.99-27.95-30.46-70.02-39.88-88.55,0,0-7.22,1.26-10.68,1.88.31,1.88.63,9.42.63,21.35.63,21.67,1.26,43.33,2.83,58.4-11.3.94-28.89,3.77-37.05,3.77.63-19.47,1.26-49.61,1.26-62.8,0-6.91.63-61.86.63-89.49,0-26.06.31-60.29.31-60.29,13.19-1.26,17.9-.94,26.69-.94,50.87,0,73.79,23.24,73.79,52.44,0,26.38-11.3,53.38-28.89,64.37,7.54,18.84,21.98,44.27,42.7,87.29-10.36,3.14-21.98,9.11-32.34,12.56ZM403.34,262c.31,15.39.31,68.14.63,75.36,1.88-.31,7.85-1.26,11.3-2.2,15.7-4.4,20.41-21.67,20.41-44.9s-11.93-28.26-32.34-28.26Z" fill="orange" stroke-width="0"/>
      <path d="M562.53,458.24c-2.2-5.65-3.45-18.21-4.08-23.24-6.91,6.91-21.04,16.01-33.28,16.01s-32.03-17.9-32.03-44.27c0-12.87,3.77-29.2,19.47-36.42,17.9-8.48,35.8-13.5,44.59-16.33,0-10.68-.94-15.7-5.02-17.9-6.91-3.14-17.27-4.4-33.6-4.4,0,0,1.88-17.58,1.57-28.26,22.29,2.51,41.45,5.34,54.32,11.93,9.73,5.02,14.76,18.53,14.76,29.52,0,1.88.31,44.27.31,72.85,0,11.3.94,24.81,2.51,31.71-10.99,2.83-18.84,3.45-29.52,8.79ZM537.1,386.03c-6.59,2.83-12.56,10.05-12.56,16.96,0,11.93,3.45,19.15,10.68,19.15,8.48,0,18.84-9.42,21.35-12.25.31-3.14,1.26-27,.94-31.71-3.14,1.88-16.01,5.65-20.41,7.85Z" fill="orange" stroke-width="0"/>
      <path d="M652.33,336.41c-.31,3.77-.63,13.82-.94,16.64-.63,8.16-1.26,38.94-.31,58.72.31,5.97,12.25,17.27,23.55,21.67-2.51,2.51-16.96,16.64-22.29,24.49-28.89-13.82-32.97-29.2-32.97-47.1v-44.9c0-10.36-1.26-21.35-.94-29.2-2.83-.31-9.11-.31-14.13.63-.94-7.85-1.26-17.58-1.26-24.49,6.91-.63,12.87-1.26,16.33-1.88.63-1.26,1.26-3.14,1.26-4.71.63-9.11.31-14.44.94-25.43,2.51-.63,21.04-5.65,34.23-10.68,0,8.16-1.26,28.89-1.88,41.13,7.85-.94,17.58-.94,23.86-2.51-.31,2.51-1.26,16.01,0,27.32-10.36-.94-22.92,0-25.43.31Z" fill="orange" stroke-width="0"/>
      <path d="M790.17,419c-.31,5.97-.31,20.41.31,34.54-12.87-2.83-25.43-4.4-34.54-5.65.63-9.11,1.26-48.67,1.57-56.83,0-2.83-.31-27-1.26-35.79-.31-4.4-3.14-7.22-8.79-7.22-7.85,0-14.76,3.14-19.47,5.97-.63,20.41-1.57,84.78.94,101.42-15.39-2.2-26.38-3.14-34.22-3.45.94-8.16-.31-36.11.31-52.75.63-19.47.94-65.62.94-70.02,0-12.25-.94-69.01,0-102.6,9.57-2.51,22.47-2.29,33.04,0,0,5.65-1.01,83.45-.7,100.72,8.16-3.77,23.86-8.79,34.23-8.79,4.4,0,11.62,2.2,16.96,5.34,4.71,2.83,11.3,11.3,11.3,26.06,0,2.51-.31,58.4-.63,69.08Z" fill="orange" stroke-width="0"/>
      <path d="M863.64,449.14c-12.56,0-29.2-6.28-38.62-15.39-13.19-12.25-17.9-33.28-17.9-55.89,0-58.09,25.12-71.28,54.63-71.28,27.95,0,41.45,32.03,43.65,76.3-26.38,2.2-57.78,3.45-65.62,3.77.31,10.68,2.83,18.84,7.22,24.49,2.83,3.77,11.3,9.11,18.53,9.11,6.59,0,20.72-2.51,33.91-9.11,2.2,7.22,5.65,13.5,9.73,19.78-6.91,9.73-36.42,18.21-45.53,18.21ZM857.05,332.33c-9.11,0-18.53,11.3-17.27,29.83,2.51.31,11.3.63,14.44,0,5.65-.31,15.39-1.26,18.84-1.57-1.57-15.7-5.65-28.26-16.01-28.26Z" fill="orange" stroke-width="0"/>
      <path d="M956.27,352.11c-.63,23.55-1.26,72.85.63,97.97-12.25-2.51-21.35-3.45-34.85-3.77,1.88-16.01,3.14-54.64,3.14-60.6v-39.88c0-10.36,0-37.37-.63-49.3,10.68,3.14,32.66,4.08,32.66,4.08v17.58c6.28-6.28,17.58-12.87,32.97-15.39,1.88,10.68,4.4,17.58,8.79,28.89-24.49.94-36.42,9.73-42.7,20.41Z" fill="orange" stroke-width="0"/>
    </g>
    <g>
      <path d="M158.88,217.6c-8.16,1.26-21.04,2.83-31.4,3.46-4.71-27.32-18.84-93.26-27.32-139.41-7.54,40.19-24.49,107.7-30.14,136.9-11.93-2.51-23.86-4.08-33.6-4.08C30.46,180.86,6.59,46.79,0,12.56,10.99,10.05,21.35,7.22,35.79.31c3.77,23.86,15.39,113.98,21.67,150.09,6.28-32.34,27-124.97,29.52-142.24,9.11.94,17.27,1.26,27.95,0,3.77,23.24,21.35,103.93,27.63,137.53,5.97-36.11,16.64-109.27,20.72-140.98,12.87,4.4,20.72,6.28,33.6,7.54-11.3,57.15-29.83,161.71-37.99,205.35Z" fill="tomato" stroke-width="0"/>
      <path d="M255.28,213.52c-18.21,0-32.66-9.11-43.65-26.38-5.65-9.11-10.68-25.12-10.68-42.7,0-52.12,24.81-73.16,54.64-73.16,27.63,0,55.58,14.45,55.58,61.54,0,50.24-27.32,80.7-55.89,80.7ZM252.14,99.85c-11.62,0-19.15,9.73-19.15,38.94,0,27,11.93,45.53,24.49,45.53,11.62,0,20.72-14.13,20.72-42.7,0-31.09-13.82-41.76-26.06-41.76Z" fill="tomato" stroke-width="0"/>
      <path d="M387.47,220.11l-.94-14.76c-5.34,2.2-30.14,9.73-36.74,9.73-9.11,0-16.01-4.08-20.1-13.19-1.57-7.85-2.2-26.69-2.2-36.42,0-14.44-.31-52.12-.94-58.72-.31-4.08-.94-22.92-1.57-29.52,11.93.94,25.12.63,34.54-.31,0,12.25.63,92.63.63,94.51,0,10.68,2.2,13.19,8.79,13.19,5.97,0,14.76-2.83,19.47-6.59,0-14.76.31-54.32-.63-74.42-.31-8.79,0-22.61-.94-29.83,8.79-1.26,22.61-4.08,33.91-8.16v157.15c-14.25-3.17-22.63-3.05-33.28-2.66Z" fill="tomato" stroke-width="0"/>
      <path d="M474.76,21.04l-1.57,136.27c-.31,4.08-.19,67.98-.5,86.51-9.69-10.11-23.36-16.08-29.95-17.96L446.5,0c8.79,2.51,21.04,5.96,28.26,9.42" fill="tomato" stroke-width="0"/>
      <path d="M594.07,212.26c-10.68.94-16.33,2.83-24.49,6.28l-6.28-13.19c-8.16,5.97-23.24,10.05-32.66,10.05-20.1,0-38.31-25.43-38.31-65.62,0-25.75,6.28-45.53,10.05-52.44,4.08-7.54,20.1-25.75,35.48-25.75,8.16,0,18.21,4.4,25.12,6.91,0-5.65-.31-18.84-.63-31.4-.31-16.64-1.26-37.37-1.26-37.37,0,0,24.18-1.88,32.97-3.45v99.54c0,5.34.31,64.05.31,75.67-.94,4.71-1.57,17.58-.31,30.77ZM561.73,107.07c-4.4-3.14-13.82-6.28-19.78-6.28-10.99,0-16.33,6.91-16.33,36.74s5.97,50.87,19.15,50.87c5.65,0,12.56-3.14,17.27-8.16,0-21.04,1.57-60.6-.31-73.16Z" fill="tomato" stroke-width="0"/>
      <path d="M735.37,123.1c0,13.5-3.82,69.22-4.76,90.89-10.58-1.56-18.84-2.43-32.87-.94,2.51-20.1,3.4-57.6,4.03-85.55-10.05-24.81-38.31-84.46-49.93-108.01,13.82-2.83,25.75-6.59,37.68-11.93,4.08,14.76,19.15,58.4,28.26,78.5,7.54-22.61,17.58-55.26,21.98-79.76,14.13,5.97,23.55,9.42,36.74,12.56-13.19,32.03-33.91,84.78-41.13,104.25Z" fill="tomato" stroke-width="0"/>
      <path d="M819.52,213.52c-18.21,0-32.66-9.11-43.65-26.38-5.65-9.11-10.68-25.12-10.68-42.7,0-52.12,24.81-73.16,54.64-73.16,27.63,0,55.58,14.45,55.58,61.54,0,50.24-27.32,80.7-55.89,80.7ZM816.38,99.85c-11.62,0-19.15,9.73-19.15,38.94,0,27,11.93,45.53,24.49,45.53,11.62,0,20.72-14.13,20.72-42.7,0-31.09-13.82-41.76-26.06-41.76Z" fill="tomato" stroke-width="0"/>
      <path d="M951.71,216.97l-.94-11.62c-5.34,2.2-30.14,9.73-36.74,9.73-9.11,0-16.01-4.08-20.1-13.19-1.57-7.85-2.2-26.69-2.2-36.42,0-14.44-.31-52.12-.94-58.72-.31-4.08-.94-22.92-1.57-29.52,11.93.94,25.12.63,34.54-.31,0,12.25.63,92.63.63,94.51,0,10.68,2.2,13.19,8.79,13.19,5.97,0,14.76-2.83,19.47-6.59,0-14.76.31-54.32-.63-74.42-.31-8.79,0-22.61-.94-29.83,8.79-1.26,22.61-4.08,33.91-8.16v154.48c-8.79-1.57-23.55-3.45-33.28-3.14Z" fill="tomato" stroke-width="0"/>
    </g>
  </g>
</svg>